<?xml version="1.0" encoding="utf-8"?>
<svg xmlns="http://www.w3.org/2000/svg" xmlns:xlink="http://www.w3.org/1999/xlink" width="600" height="400" viewBox="0 0 2400 1600">
<defs>
  <clipPath id="clip610">
    <rect x="0" y="0" width="2400" height="1600"/>
  </clipPath>
</defs>
<path clip-path="url(#clip610)" d="
M0 1600 L2400 1600 L2400 0 L0 0  Z
  " fill="#ffffff" fill-rule="evenodd" fill-opacity="1"/>
<defs>
  <clipPath id="clip611">
    <rect x="480" y="0" width="1681" height="1600"/>
  </clipPath>
</defs>
<path clip-path="url(#clip610)" d="
M86.9921 1521.01 L2352.76 1521.01 L2352.76 62.9921 L86.9921 62.9921  Z
  " fill="#ffffff" fill-rule="evenodd" fill-opacity="1"/>
<defs>
  <clipPath id="clip612">
    <rect x="86" y="62" width="2267" height="1459"/>
  </clipPath>
</defs>
<polyline clip-path="url(#clip612)" style="stroke:#000000; stroke-linecap:round; stroke-linejoin:round; stroke-width:2; stroke-opacity:0.1; fill:none" points="
  388.619,1521.01 388.619,62.9921 
  "/>
<polyline clip-path="url(#clip612)" style="stroke:#000000; stroke-linecap:round; stroke-linejoin:round; stroke-width:2; stroke-opacity:0.1; fill:none" points="
  863.622,1521.01 863.622,62.9921 
  "/>
<polyline clip-path="url(#clip612)" style="stroke:#000000; stroke-linecap:round; stroke-linejoin:round; stroke-width:2; stroke-opacity:0.1; fill:none" points="
  1338.62,1521.01 1338.62,62.9921 
  "/>
<polyline clip-path="url(#clip612)" style="stroke:#000000; stroke-linecap:round; stroke-linejoin:round; stroke-width:2; stroke-opacity:0.1; fill:none" points="
  1813.63,1521.01 1813.63,62.9921 
  "/>
<polyline clip-path="url(#clip612)" style="stroke:#000000; stroke-linecap:round; stroke-linejoin:round; stroke-width:2; stroke-opacity:0.1; fill:none" points="
  2288.63,1521.01 2288.63,62.9921 
  "/>
<polyline clip-path="url(#clip610)" style="stroke:#000000; stroke-linecap:round; stroke-linejoin:round; stroke-width:4; stroke-opacity:1; fill:none" points="
  86.9921,1521.01 2352.76,1521.01 
  "/>
<polyline clip-path="url(#clip610)" style="stroke:#000000; stroke-linecap:round; stroke-linejoin:round; stroke-width:4; stroke-opacity:1; fill:none" points="
  388.619,1521.01 388.619,1502.11 
  "/>
<polyline clip-path="url(#clip610)" style="stroke:#000000; stroke-linecap:round; stroke-linejoin:round; stroke-width:4; stroke-opacity:1; fill:none" points="
  863.622,1521.01 863.622,1502.11 
  "/>
<polyline clip-path="url(#clip610)" style="stroke:#000000; stroke-linecap:round; stroke-linejoin:round; stroke-width:4; stroke-opacity:1; fill:none" points="
  1338.62,1521.01 1338.62,1502.11 
  "/>
<polyline clip-path="url(#clip610)" style="stroke:#000000; stroke-linecap:round; stroke-linejoin:round; stroke-width:4; stroke-opacity:1; fill:none" points="
  1813.63,1521.01 1813.63,1502.11 
  "/>
<polyline clip-path="url(#clip610)" style="stroke:#000000; stroke-linecap:round; stroke-linejoin:round; stroke-width:4; stroke-opacity:1; fill:none" points="
  2288.63,1521.01 2288.63,1502.11 
  "/>
<path clip-path="url(#clip610)" d="M383.272 1579.47 L399.591 1579.47 L399.591 1583.41 L377.647 1583.41 L377.647 1579.47 Q380.309 1576.72 384.892 1572.09 Q389.499 1567.44 390.679 1566.09 Q392.924 1563.57 393.804 1561.83 Q394.707 1560.07 394.707 1558.38 Q394.707 1555.63 392.762 1553.89 Q390.841 1552.16 387.739 1552.16 Q385.54 1552.16 383.087 1552.92 Q380.656 1553.69 377.878 1555.24 L377.878 1550.51 Q380.702 1549.38 383.156 1548.8 Q385.61 1548.22 387.647 1548.22 Q393.017 1548.22 396.212 1550.91 Q399.406 1553.59 399.406 1558.08 Q399.406 1560.21 398.596 1562.13 Q397.809 1564.03 395.702 1566.63 Q395.124 1567.3 392.022 1570.51 Q388.92 1573.71 383.272 1579.47 Z" fill="#000000" fill-rule="evenodd" fill-opacity="1" /><path clip-path="url(#clip610)" d="M866.631 1552.92 L854.826 1571.37 L866.631 1571.37 L866.631 1552.92 M865.404 1548.85 L871.284 1548.85 L871.284 1571.37 L876.214 1571.37 L876.214 1575.26 L871.284 1575.26 L871.284 1583.41 L866.631 1583.41 L866.631 1575.26 L851.029 1575.26 L851.029 1570.75 L865.404 1548.85 Z" fill="#000000" fill-rule="evenodd" fill-opacity="1" /><path clip-path="url(#clip610)" d="M1339.03 1564.26 Q1335.88 1564.26 1334.03 1566.42 Q1332.2 1568.57 1332.2 1572.32 Q1332.2 1576.05 1334.03 1578.22 Q1335.88 1580.38 1339.03 1580.38 Q1342.18 1580.38 1344.01 1578.22 Q1345.86 1576.05 1345.86 1572.32 Q1345.86 1568.57 1344.01 1566.42 Q1342.18 1564.26 1339.03 1564.26 M1348.31 1549.61 L1348.31 1553.87 Q1346.55 1553.04 1344.75 1552.6 Q1342.96 1552.16 1341.21 1552.16 Q1336.58 1552.16 1334.12 1555.28 Q1331.69 1558.41 1331.34 1564.73 Q1332.71 1562.71 1334.77 1561.65 Q1336.83 1560.56 1339.31 1560.56 Q1344.52 1560.56 1347.53 1563.73 Q1350.56 1566.88 1350.56 1572.32 Q1350.56 1577.64 1347.41 1580.86 Q1344.26 1584.08 1339.03 1584.08 Q1333.03 1584.08 1329.86 1579.5 Q1326.69 1574.89 1326.69 1566.16 Q1326.69 1557.97 1330.58 1553.11 Q1334.47 1548.22 1341.02 1548.22 Q1342.78 1548.22 1344.56 1548.57 Q1346.37 1548.92 1348.31 1549.61 Z" fill="#000000" fill-rule="evenodd" fill-opacity="1" /><path clip-path="url(#clip610)" d="M1813.63 1567 Q1810.29 1567 1808.37 1568.78 Q1806.47 1570.56 1806.47 1573.69 Q1806.47 1576.81 1808.37 1578.59 Q1810.29 1580.38 1813.63 1580.38 Q1816.96 1580.38 1818.88 1578.59 Q1820.8 1576.79 1820.8 1573.69 Q1820.8 1570.56 1818.88 1568.78 Q1816.98 1567 1813.63 1567 M1808.95 1565.01 Q1805.94 1564.26 1804.25 1562.2 Q1802.59 1560.14 1802.59 1557.18 Q1802.59 1553.04 1805.53 1550.63 Q1808.49 1548.22 1813.63 1548.22 Q1818.79 1548.22 1821.73 1550.63 Q1824.67 1553.04 1824.67 1557.18 Q1824.67 1560.14 1822.98 1562.2 Q1821.31 1564.26 1818.33 1565.01 Q1821.71 1565.79 1823.58 1568.08 Q1825.48 1570.38 1825.48 1573.69 Q1825.48 1578.71 1822.4 1581.39 Q1819.35 1584.08 1813.63 1584.08 Q1807.91 1584.08 1804.83 1581.39 Q1801.78 1578.71 1801.78 1573.69 Q1801.78 1570.38 1803.67 1568.08 Q1805.57 1565.79 1808.95 1565.01 M1807.24 1557.62 Q1807.24 1560.31 1808.91 1561.81 Q1810.6 1563.32 1813.63 1563.32 Q1816.64 1563.32 1818.33 1561.81 Q1820.04 1560.31 1820.04 1557.62 Q1820.04 1554.94 1818.33 1553.43 Q1816.64 1551.93 1813.63 1551.93 Q1810.6 1551.93 1808.91 1553.43 Q1807.24 1554.94 1807.24 1557.62 Z" fill="#000000" fill-rule="evenodd" fill-opacity="1" /><path clip-path="url(#clip610)" d="M2263.32 1579.47 L2270.96 1579.47 L2270.96 1553.11 L2262.65 1554.77 L2262.65 1550.51 L2270.91 1548.85 L2275.59 1548.85 L2275.59 1579.47 L2283.23 1579.47 L2283.23 1583.41 L2263.32 1583.41 L2263.32 1579.47 Z" fill="#000000" fill-rule="evenodd" fill-opacity="1" /><path clip-path="url(#clip610)" d="M2302.67 1551.93 Q2299.06 1551.93 2297.23 1555.49 Q2295.42 1559.03 2295.42 1566.16 Q2295.42 1573.27 2297.23 1576.83 Q2299.06 1580.38 2302.67 1580.38 Q2306.3 1580.38 2308.11 1576.83 Q2309.94 1573.27 2309.94 1566.16 Q2309.94 1559.03 2308.11 1555.49 Q2306.3 1551.93 2302.67 1551.93 M2302.67 1548.22 Q2308.48 1548.22 2311.54 1552.83 Q2314.61 1557.41 2314.61 1566.16 Q2314.61 1574.89 2311.54 1579.5 Q2308.48 1584.08 2302.67 1584.08 Q2296.86 1584.08 2293.78 1579.5 Q2290.73 1574.89 2290.73 1566.16 Q2290.73 1557.41 2293.78 1552.83 Q2296.86 1548.22 2302.67 1548.22 Z" fill="#000000" fill-rule="evenodd" fill-opacity="1" /><polyline clip-path="url(#clip612)" style="stroke:#000000; stroke-linecap:round; stroke-linejoin:round; stroke-width:2; stroke-opacity:0.1; fill:none" points="
  86.9921,1520.55 2352.76,1520.55 
  "/>
<polyline clip-path="url(#clip612)" style="stroke:#000000; stroke-linecap:round; stroke-linejoin:round; stroke-width:2; stroke-opacity:0.1; fill:none" points="
  86.9921,1186.67 2352.76,1186.67 
  "/>
<polyline clip-path="url(#clip612)" style="stroke:#000000; stroke-linecap:round; stroke-linejoin:round; stroke-width:2; stroke-opacity:0.1; fill:none" points="
  86.9921,852.791 2352.76,852.791 
  "/>
<polyline clip-path="url(#clip612)" style="stroke:#000000; stroke-linecap:round; stroke-linejoin:round; stroke-width:2; stroke-opacity:0.1; fill:none" points="
  86.9921,518.914 2352.76,518.914 
  "/>
<polyline clip-path="url(#clip612)" style="stroke:#000000; stroke-linecap:round; stroke-linejoin:round; stroke-width:2; stroke-opacity:0.1; fill:none" points="
  86.9921,185.036 2352.76,185.036 
  "/>
<polyline clip-path="url(#clip610)" style="stroke:#000000; stroke-linecap:round; stroke-linejoin:round; stroke-width:4; stroke-opacity:1; fill:none" points="
  86.9921,1521.01 86.9921,62.9921 
  "/>
<polyline clip-path="url(#clip610)" style="stroke:#000000; stroke-linecap:round; stroke-linejoin:round; stroke-width:4; stroke-opacity:1; fill:none" points="
  86.9921,1520.55 105.89,1520.55 
  "/>
<polyline clip-path="url(#clip610)" style="stroke:#000000; stroke-linecap:round; stroke-linejoin:round; stroke-width:4; stroke-opacity:1; fill:none" points="
  86.9921,1186.67 105.89,1186.67 
  "/>
<polyline clip-path="url(#clip610)" style="stroke:#000000; stroke-linecap:round; stroke-linejoin:round; stroke-width:4; stroke-opacity:1; fill:none" points="
  86.9921,852.791 105.89,852.791 
  "/>
<polyline clip-path="url(#clip610)" style="stroke:#000000; stroke-linecap:round; stroke-linejoin:round; stroke-width:4; stroke-opacity:1; fill:none" points="
  86.9921,518.914 105.89,518.914 
  "/>
<polyline clip-path="url(#clip610)" style="stroke:#000000; stroke-linecap:round; stroke-linejoin:round; stroke-width:4; stroke-opacity:1; fill:none" points="
  86.9921,185.036 105.89,185.036 
  "/>
<path clip-path="url(#clip610)" d="M-6.18349 1506.34 Q-9.79459 1506.34 -11.6233 1509.91 Q-13.4288 1513.45 -13.4288 1520.58 Q-13.4288 1527.69 -11.6233 1531.25 Q-9.79459 1534.79 -6.18349 1534.79 Q-2.54925 1534.79 -0.743708 1531.25 Q1.08499 1527.69 1.08499 1520.58 Q1.08499 1513.45 -0.743708 1509.91 Q-2.54925 1506.34 -6.18349 1506.34 M-6.18349 1502.64 Q-0.37334 1502.64 2.6822 1507.25 Q5.76089 1511.83 5.76089 1520.58 Q5.76089 1529.31 2.6822 1533.91 Q-0.37334 1538.5 -6.18349 1538.5 Q-11.9936 1538.5 -15.0723 1533.91 Q-18.1279 1529.31 -18.1279 1520.58 Q-18.1279 1511.83 -15.0723 1507.25 Q-11.9936 1502.64 -6.18349 1502.64 Z" fill="#000000" fill-rule="evenodd" fill-opacity="1" /><path clip-path="url(#clip610)" d="M13.9784 1531.95 L18.8627 1531.95 L18.8627 1537.83 L13.9784 1537.83 L13.9784 1531.95 Z" fill="#000000" fill-rule="evenodd" fill-opacity="1" /><path clip-path="url(#clip610)" d="M39.0477 1506.34 Q35.4367 1506.34 33.608 1509.91 Q31.8024 1513.45 31.8024 1520.58 Q31.8024 1527.69 33.608 1531.25 Q35.4367 1534.79 39.0477 1534.79 Q42.682 1534.79 44.4875 1531.25 Q46.3162 1527.69 46.3162 1520.58 Q46.3162 1513.45 44.4875 1509.91 Q42.682 1506.34 39.0477 1506.34 M39.0477 1502.64 Q44.8579 1502.64 47.9134 1507.25 Q50.9921 1511.83 50.9921 1520.58 Q50.9921 1529.31 47.9134 1533.91 Q44.8579 1538.5 39.0477 1538.5 Q33.2376 1538.5 30.1589 1533.91 Q27.1034 1529.31 27.1034 1520.58 Q27.1034 1511.83 30.1589 1507.25 Q33.2376 1502.64 39.0477 1502.64 Z" fill="#000000" fill-rule="evenodd" fill-opacity="1" /><path clip-path="url(#clip610)" d="M-4.58628 1172.47 Q-8.19737 1172.47 -10.0261 1176.03 Q-11.8316 1179.57 -11.8316 1186.7 Q-11.8316 1193.81 -10.0261 1197.37 Q-8.19737 1200.92 -4.58628 1200.92 Q-0.95204 1200.92 0.853506 1197.37 Q2.6822 1193.81 2.6822 1186.7 Q2.6822 1179.57 0.853506 1176.03 Q-0.95204 1172.47 -4.58628 1172.47 M-4.58628 1168.76 Q1.22387 1168.76 4.27941 1173.37 Q7.3581 1177.95 7.3581 1186.7 Q7.3581 1195.43 4.27941 1200.04 Q1.22387 1204.62 -4.58628 1204.62 Q-10.3964 1204.62 -13.4751 1200.04 Q-16.5307 1195.43 -16.5307 1186.7 Q-16.5307 1177.95 -13.4751 1173.37 Q-10.3964 1168.76 -4.58628 1168.76 Z" fill="#000000" fill-rule="evenodd" fill-opacity="1" /><path clip-path="url(#clip610)" d="M15.5756 1198.07 L20.4599 1198.07 L20.4599 1203.95 L15.5756 1203.95 L15.5756 1198.07 Z" fill="#000000" fill-rule="evenodd" fill-opacity="1" /><path clip-path="url(#clip610)" d="M34.6728 1200.01 L50.9921 1200.01 L50.9921 1203.95 L29.0478 1203.95 L29.0478 1200.01 Q31.7098 1197.26 36.2931 1192.63 Q40.8996 1187.98 42.0801 1186.63 Q44.3255 1184.11 45.2051 1182.37 Q46.1079 1180.62 46.1079 1178.93 Q46.1079 1176.17 44.1635 1174.43 Q42.2422 1172.7 39.1403 1172.7 Q36.9413 1172.7 34.4876 1173.46 Q32.057 1174.23 29.2793 1175.78 L29.2793 1171.06 Q32.1033 1169.92 34.557 1169.34 Q37.0107 1168.76 39.0477 1168.76 Q44.4181 1168.76 47.6125 1171.45 Q50.8069 1174.13 50.8069 1178.62 Q50.8069 1180.75 49.9968 1182.68 Q49.2097 1184.57 47.1033 1187.17 Q46.5246 1187.84 43.4227 1191.06 Q40.3209 1194.25 34.6728 1200.01 Z" fill="#000000" fill-rule="evenodd" fill-opacity="1" /><path clip-path="url(#clip610)" d="M-6.6696 838.59 Q-10.2807 838.59 -12.1094 842.155 Q-13.9149 845.696 -13.9149 852.826 Q-13.9149 859.932 -12.1094 863.497 Q-10.2807 867.039 -6.6696 867.039 Q-3.03536 867.039 -1.22982 863.497 Q0.598877 859.932 0.598877 852.826 Q0.598877 845.696 -1.22982 842.155 Q-3.03536 838.59 -6.6696 838.59 M-6.6696 834.886 Q-0.859448 834.886 2.19609 839.493 Q5.27478 844.076 5.27478 852.826 Q5.27478 861.553 2.19609 866.159 Q-0.859448 870.742 -6.6696 870.742 Q-12.4798 870.742 -15.5584 866.159 Q-18.614 861.553 -18.614 852.826 Q-18.614 844.076 -15.5584 839.493 Q-12.4798 834.886 -6.6696 834.886 Z" fill="#000000" fill-rule="evenodd" fill-opacity="1" /><path clip-path="url(#clip610)" d="M13.4923 864.192 L18.3766 864.192 L18.3766 870.071 L13.4923 870.071 L13.4923 864.192 Z" fill="#000000" fill-rule="evenodd" fill-opacity="1" /><path clip-path="url(#clip610)" d="M41.4088 839.585 L29.6034 858.034 L41.4088 858.034 L41.4088 839.585 M40.182 835.511 L46.0616 835.511 L46.0616 858.034 L50.9921 858.034 L50.9921 861.923 L46.0616 861.923 L46.0616 870.071 L41.4088 870.071 L41.4088 861.923 L25.8071 861.923 L25.8071 857.409 L40.182 835.511 Z" fill="#000000" fill-rule="evenodd" fill-opacity="1" /><path clip-path="url(#clip610)" d="M-6.34553 504.712 Q-9.95662 504.712 -11.7853 508.277 Q-13.5909 511.819 -13.5909 518.948 Q-13.5909 526.055 -11.7853 529.62 Q-9.95662 533.161 -6.34553 533.161 Q-2.71129 533.161 -0.905744 529.62 Q0.92295 526.055 0.92295 518.948 Q0.92295 511.819 -0.905744 508.277 Q-2.71129 504.712 -6.34553 504.712 M-6.34553 501.009 Q-0.535376 501.009 2.52016 505.615 Q5.59885 510.199 5.59885 518.948 Q5.59885 527.675 2.52016 532.282 Q-0.535376 536.865 -6.34553 536.865 Q-12.1557 536.865 -15.2344 532.282 Q-18.2899 527.675 -18.2899 518.948 Q-18.2899 510.199 -15.2344 505.615 Q-12.1557 501.009 -6.34553 501.009 Z" fill="#000000" fill-rule="evenodd" fill-opacity="1" /><path clip-path="url(#clip610)" d="M13.8164 530.314 L18.7006 530.314 L18.7006 536.194 L13.8164 536.194 L13.8164 530.314 Z" fill="#000000" fill-rule="evenodd" fill-opacity="1" /><path clip-path="url(#clip610)" d="M39.4644 517.05 Q36.3163 517.05 34.4644 519.203 Q32.6357 521.356 32.6357 525.106 Q32.6357 528.833 34.4644 531.009 Q36.3163 533.161 39.4644 533.161 Q42.6125 533.161 44.4412 531.009 Q46.2931 528.833 46.2931 525.106 Q46.2931 521.356 44.4412 519.203 Q42.6125 517.05 39.4644 517.05 M48.7468 502.398 L48.7468 506.657 Q46.9875 505.824 45.182 505.384 Q43.3996 504.944 41.6403 504.944 Q37.0107 504.944 34.557 508.069 Q32.1265 511.194 31.7793 517.513 Q33.145 515.499 35.2052 514.435 Q37.2653 513.347 39.7422 513.347 Q44.9505 513.347 47.9597 516.518 Q50.9921 519.666 50.9921 525.106 Q50.9921 530.43 47.844 533.647 Q44.6959 536.865 39.4644 536.865 Q33.4691 536.865 30.2978 532.282 Q27.1265 527.675 27.1265 518.948 Q27.1265 510.754 31.0154 505.893 Q34.9042 501.009 41.4551 501.009 Q43.2144 501.009 44.9968 501.356 Q46.8023 501.703 48.7468 502.398 Z" fill="#000000" fill-rule="evenodd" fill-opacity="1" /><path clip-path="url(#clip610)" d="M-6.0909 170.835 Q-9.70199 170.835 -11.5307 174.4 Q-13.3362 177.941 -13.3362 185.071 Q-13.3362 192.178 -11.5307 195.742 Q-9.70199 199.284 -6.0909 199.284 Q-2.45666 199.284 -0.651116 195.742 Q1.17758 192.178 1.17758 185.071 Q1.17758 177.941 -0.651116 174.4 Q-2.45666 170.835 -6.0909 170.835 M-6.0909 167.131 Q-0.280747 167.131 2.77479 171.738 Q5.85348 176.321 5.85348 185.071 Q5.85348 193.798 2.77479 198.404 Q-0.280747 202.988 -6.0909 202.988 Q-11.9011 202.988 -14.9797 198.404 Q-18.0353 193.798 -18.0353 185.071 Q-18.0353 176.321 -14.9797 171.738 Q-11.9011 167.131 -6.0909 167.131 Z" fill="#000000" fill-rule="evenodd" fill-opacity="1" /><path clip-path="url(#clip610)" d="M14.071 196.437 L18.9553 196.437 L18.9553 202.316 L14.071 202.316 L14.071 196.437 Z" fill="#000000" fill-rule="evenodd" fill-opacity="1" /><path clip-path="url(#clip610)" d="M39.1403 185.904 Q35.807 185.904 33.8857 187.687 Q31.9876 189.469 31.9876 192.594 Q31.9876 195.719 33.8857 197.502 Q35.807 199.284 39.1403 199.284 Q42.4737 199.284 44.3949 197.502 Q46.3162 195.696 46.3162 192.594 Q46.3162 189.469 44.3949 187.687 Q42.4968 185.904 39.1403 185.904 M34.4644 183.914 Q31.4552 183.173 29.7654 181.113 Q28.0987 179.053 28.0987 176.09 Q28.0987 171.946 31.0385 169.539 Q34.0015 167.131 39.1403 167.131 Q44.3023 167.131 47.2421 169.539 Q50.1819 171.946 50.1819 176.09 Q50.1819 179.053 48.4921 181.113 Q46.8255 183.173 43.8394 183.914 Q47.219 184.701 49.094 186.992 Q50.9921 189.284 50.9921 192.594 Q50.9921 197.617 47.9134 200.302 Q44.8579 202.988 39.1403 202.988 Q33.4228 202.988 30.3441 200.302 Q27.2885 197.617 27.2885 192.594 Q27.2885 189.284 29.1867 186.992 Q31.0848 184.701 34.4644 183.914 M32.7515 176.529 Q32.7515 179.215 34.4181 180.719 Q36.1079 182.224 39.1403 182.224 Q42.1496 182.224 43.8394 180.719 Q45.5523 179.215 45.5523 176.529 Q45.5523 173.844 43.8394 172.34 Q42.1496 170.835 39.1403 170.835 Q36.1079 170.835 34.4181 172.34 Q32.7515 173.844 32.7515 176.529 Z" fill="#000000" fill-rule="evenodd" fill-opacity="1" /><path clip-path="url(#clip610)" d="M1022.76 12.096 L1073.92 12.096 L1073.92 18.9825 L1052.45 18.9825 L1052.45 72.576 L1044.23 72.576 L1044.23 18.9825 L1022.76 18.9825 L1022.76 12.096 Z" fill="#000000" fill-rule="evenodd" fill-opacity="1" /><path clip-path="url(#clip610)" d="M1063.43 27.2059 L1070.88 27.2059 L1080.2 62.6108 L1089.48 27.2059 L1098.27 27.2059 L1107.58 62.6108 L1116.86 27.2059 L1124.31 27.2059 L1112.44 72.576 L1103.65 72.576 L1093.89 35.3887 L1084.09 72.576 L1075.3 72.576 L1063.43 27.2059 Z" fill="#000000" fill-rule="evenodd" fill-opacity="1" /><path clip-path="url(#clip610)" d="M1153.2 32.4315 Q1147.2 32.4315 1143.72 37.1306 Q1140.23 41.7891 1140.23 49.9314 Q1140.23 58.0738 1143.68 62.7728 Q1147.16 67.4314 1153.2 67.4314 Q1159.15 67.4314 1162.63 62.7323 Q1166.12 58.0333 1166.12 49.9314 Q1166.12 41.8701 1162.63 37.1711 Q1159.15 32.4315 1153.2 32.4315 M1153.2 26.1121 Q1162.92 26.1121 1168.47 32.4315 Q1174.02 38.7509 1174.02 49.9314 Q1174.02 61.0714 1168.47 67.4314 Q1162.92 73.7508 1153.2 73.7508 Q1143.43 73.7508 1137.88 67.4314 Q1132.37 61.0714 1132.37 49.9314 Q1132.37 38.7509 1137.88 32.4315 Q1143.43 26.1121 1153.2 26.1121 Z" fill="#000000" fill-rule="evenodd" fill-opacity="1" /><path clip-path="url(#clip610)" d="M1213.07 12.096 L1221.25 12.096 L1221.25 65.6895 L1250.7 65.6895 L1250.7 72.576 L1213.07 72.576 L1213.07 12.096 Z" fill="#000000" fill-rule="evenodd" fill-opacity="1" /><path clip-path="url(#clip610)" d="M1258.97 27.2059 L1266.42 27.2059 L1266.42 72.576 L1258.97 72.576 L1258.97 27.2059 M1258.97 9.54393 L1266.42 9.54393 L1266.42 18.9825 L1258.97 18.9825 L1258.97 9.54393 Z" fill="#000000" fill-rule="evenodd" fill-opacity="1" /><path clip-path="url(#clip610)" d="M1319.73 45.1919 L1319.73 72.576 L1312.28 72.576 L1312.28 45.4349 Q1312.28 38.994 1309.76 35.7938 Q1307.25 32.5936 1302.23 32.5936 Q1296.19 32.5936 1292.71 36.4419 Q1289.23 40.2903 1289.23 46.9338 L1289.23 72.576 L1281.73 72.576 L1281.73 27.2059 L1289.23 27.2059 L1289.23 34.2544 Q1291.9 30.163 1295.5 28.1376 Q1299.15 26.1121 1303.89 26.1121 Q1311.71 26.1121 1315.72 30.9732 Q1319.73 35.7938 1319.73 45.1919 Z" fill="#000000" fill-rule="evenodd" fill-opacity="1" /><path clip-path="url(#clip610)" d="M1373.4 48.0275 L1373.4 51.6733 L1339.13 51.6733 Q1339.62 59.3701 1343.75 63.421 Q1347.92 67.4314 1355.34 67.4314 Q1359.63 67.4314 1363.64 66.3781 Q1367.69 65.3249 1371.66 63.2184 L1371.66 70.267 Q1367.65 71.9684 1363.44 72.8596 Q1359.23 73.7508 1354.89 73.7508 Q1344.03 73.7508 1337.67 67.4314 Q1331.35 61.1119 1331.35 50.3365 Q1331.35 39.1965 1337.35 32.6746 Q1343.39 26.1121 1353.59 26.1121 Q1362.75 26.1121 1368.06 32.0264 Q1373.4 37.9003 1373.4 48.0275 M1365.95 45.84 Q1365.87 39.7232 1362.51 36.0774 Q1359.18 32.4315 1353.68 32.4315 Q1347.44 32.4315 1343.67 35.9558 Q1339.94 39.4801 1339.38 45.8805 L1365.95 45.84 Z" fill="#000000" fill-rule="evenodd" fill-opacity="1" /><path clip-path="url(#clip610)" d="M1414.56 28.5427 L1414.56 35.5912 Q1411.4 33.9709 1408 33.1607 Q1404.6 32.3505 1400.95 32.3505 Q1395.4 32.3505 1392.6 34.0519 Q1389.85 35.7533 1389.85 39.156 Q1389.85 41.7486 1391.83 43.2475 Q1393.82 44.7058 1399.82 46.0426 L1402.37 46.6097 Q1410.31 48.3111 1413.63 51.4303 Q1416.99 54.509 1416.99 60.0587 Q1416.99 66.3781 1411.97 70.0644 Q1406.99 73.7508 1398.24 73.7508 Q1394.59 73.7508 1390.62 73.0216 Q1386.69 72.3329 1382.32 70.9151 L1382.32 63.2184 Q1386.45 65.3654 1390.46 66.4591 Q1394.47 67.5124 1398.4 67.5124 Q1403.66 67.5124 1406.5 65.73 Q1409.33 63.9071 1409.33 60.6258 Q1409.33 57.5877 1407.27 55.9673 Q1405.24 54.3469 1398.32 52.8481 L1395.72 52.2405 Q1388.8 50.7821 1385.72 47.7845 Q1382.64 44.7463 1382.64 39.4801 Q1382.64 33.0797 1387.18 29.5959 Q1391.71 26.1121 1400.06 26.1121 Q1404.19 26.1121 1407.84 26.7198 Q1411.48 27.3274 1414.56 28.5427 Z" fill="#000000" fill-rule="evenodd" fill-opacity="1" /><polyline clip-path="url(#clip612)" style="stroke:#009af9; stroke-linecap:round; stroke-linejoin:round; stroke-width:12; stroke-opacity:1; fill:none" points="
  151.118,1189.9 388.619,990.341 626.12,522.15 863.622,1140.62 1101.12,104.257 1338.62,602.074 1576.13,1260.31 1813.63,367.793 2051.13,1013.17 2288.63,455.911 
  
  "/>
<polyline clip-path="url(#clip612)" style="stroke:#e26f46; stroke-linecap:round; stroke-linejoin:round; stroke-width:12; stroke-opacity:1; fill:none" points="
  151.118,1131.44 388.619,1146.11 626.12,222.497 863.622,1479.74 1101.12,1203.1 1338.62,646.679 1576.13,1298.58 1813.63,1109.13 2051.13,401.742 2288.63,1384.23 
  
  "/>
<path clip-path="url(#clip610)" d="
M1890.48 267.113 L2277.23 267.113 L2277.23 111.593 L1890.48 111.593  Z
  " fill="#ffffff" fill-rule="evenodd" fill-opacity="1"/>
<polyline clip-path="url(#clip610)" style="stroke:#000000; stroke-linecap:round; stroke-linejoin:round; stroke-width:4; stroke-opacity:1; fill:none" points="
  1890.48,267.113 2277.23,267.113 2277.23,111.593 1890.48,111.593 1890.48,267.113 
  "/>
<polyline clip-path="url(#clip610)" style="stroke:#009af9; stroke-linecap:round; stroke-linejoin:round; stroke-width:4; stroke-opacity:1; fill:none" points="
  1915.65,163.433 2066.71,163.433 
  "/>
<path clip-path="url(#clip610)" d="M2091.88 146.153 L2096.56 146.153 L2096.56 176.777 L2113.39 176.777 L2113.39 180.713 L2091.88 180.713 L2091.88 146.153 Z" fill="#000000" fill-rule="evenodd" fill-opacity="1" /><path clip-path="url(#clip610)" d="M2118.11 154.787 L2122.37 154.787 L2122.37 180.713 L2118.11 180.713 L2118.11 154.787 M2118.11 144.694 L2122.37 144.694 L2122.37 150.088 L2118.11 150.088 L2118.11 144.694 Z" fill="#000000" fill-rule="evenodd" fill-opacity="1" /><path clip-path="url(#clip610)" d="M2152.83 165.065 L2152.83 180.713 L2148.57 180.713 L2148.57 165.203 Q2148.57 161.523 2147.14 159.694 Q2145.7 157.866 2142.83 157.866 Q2139.38 157.866 2137.39 160.065 Q2135.4 162.264 2135.4 166.06 L2135.4 180.713 L2131.12 180.713 L2131.12 154.787 L2135.4 154.787 L2135.4 158.815 Q2136.93 156.477 2138.99 155.319 Q2141.07 154.162 2143.78 154.162 Q2148.25 154.162 2150.54 156.94 Q2152.83 159.694 2152.83 165.065 Z" fill="#000000" fill-rule="evenodd" fill-opacity="1" /><path clip-path="url(#clip610)" d="M2183.5 166.685 L2183.5 168.768 L2163.92 168.768 Q2164.2 173.166 2166.56 175.481 Q2168.94 177.773 2173.18 177.773 Q2175.63 177.773 2177.92 177.171 Q2180.24 176.569 2182.51 175.365 L2182.51 179.393 Q2180.21 180.365 2177.81 180.875 Q2175.4 181.384 2172.92 181.384 Q2166.72 181.384 2163.08 177.773 Q2159.47 174.162 2159.47 168.004 Q2159.47 161.639 2162.9 157.912 Q2166.35 154.162 2172.18 154.162 Q2177.41 154.162 2180.45 157.541 Q2183.5 160.898 2183.5 166.685 M2179.24 165.435 Q2179.2 161.94 2177.27 159.856 Q2175.38 157.773 2172.23 157.773 Q2168.66 157.773 2166.51 159.787 Q2164.38 161.801 2164.06 165.458 L2179.24 165.435 Z" fill="#000000" fill-rule="evenodd" fill-opacity="1" /><path clip-path="url(#clip610)" d="M2206.97 176.777 L2214.61 176.777 L2214.61 150.412 L2206.3 152.079 L2206.3 147.819 L2214.57 146.153 L2219.24 146.153 L2219.24 176.777 L2226.88 176.777 L2226.88 180.713 L2206.97 180.713 L2206.97 176.777 Z" fill="#000000" fill-rule="evenodd" fill-opacity="1" /><polyline clip-path="url(#clip610)" style="stroke:#e26f46; stroke-linecap:round; stroke-linejoin:round; stroke-width:4; stroke-opacity:1; fill:none" points="
  1915.65,215.273 2066.71,215.273 
  "/>
<path clip-path="url(#clip610)" d="M2091.88 197.993 L2096.56 197.993 L2096.56 228.617 L2113.39 228.617 L2113.39 232.553 L2091.88 232.553 L2091.88 197.993 Z" fill="#000000" fill-rule="evenodd" fill-opacity="1" /><path clip-path="url(#clip610)" d="M2118.11 206.627 L2122.37 206.627 L2122.37 232.553 L2118.11 232.553 L2118.11 206.627 M2118.11 196.534 L2122.37 196.534 L2122.37 201.928 L2118.11 201.928 L2118.11 196.534 Z" fill="#000000" fill-rule="evenodd" fill-opacity="1" /><path clip-path="url(#clip610)" d="M2152.83 216.905 L2152.83 232.553 L2148.57 232.553 L2148.57 217.043 Q2148.57 213.363 2147.14 211.534 Q2145.7 209.706 2142.83 209.706 Q2139.38 209.706 2137.39 211.905 Q2135.4 214.104 2135.4 217.9 L2135.4 232.553 L2131.12 232.553 L2131.12 206.627 L2135.4 206.627 L2135.4 210.655 Q2136.93 208.317 2138.99 207.159 Q2141.07 206.002 2143.78 206.002 Q2148.25 206.002 2150.54 208.78 Q2152.83 211.534 2152.83 216.905 Z" fill="#000000" fill-rule="evenodd" fill-opacity="1" /><path clip-path="url(#clip610)" d="M2183.5 218.525 L2183.5 220.608 L2163.92 220.608 Q2164.2 225.006 2166.56 227.321 Q2168.94 229.613 2173.18 229.613 Q2175.63 229.613 2177.92 229.011 Q2180.24 228.409 2182.51 227.205 L2182.51 231.233 Q2180.21 232.205 2177.81 232.715 Q2175.4 233.224 2172.92 233.224 Q2166.72 233.224 2163.08 229.613 Q2159.47 226.002 2159.47 219.844 Q2159.47 213.479 2162.9 209.752 Q2166.35 206.002 2172.18 206.002 Q2177.41 206.002 2180.45 209.381 Q2183.5 212.738 2183.5 218.525 M2179.24 217.275 Q2179.2 213.78 2177.27 211.696 Q2175.38 209.613 2172.23 209.613 Q2168.66 209.613 2166.51 211.627 Q2164.38 213.641 2164.06 217.298 L2179.24 217.275 Z" fill="#000000" fill-rule="evenodd" fill-opacity="1" /><path clip-path="url(#clip610)" d="M2210.19 228.617 L2226.51 228.617 L2226.51 232.553 L2204.57 232.553 L2204.57 228.617 Q2207.23 225.863 2211.81 221.233 Q2216.42 216.581 2217.6 215.238 Q2219.84 212.715 2220.72 210.979 Q2221.63 209.219 2221.63 207.53 Q2221.63 204.775 2219.68 203.039 Q2217.76 201.303 2214.66 201.303 Q2212.46 201.303 2210.01 202.067 Q2207.57 202.831 2204.8 204.382 L2204.8 199.659 Q2207.62 198.525 2210.07 197.946 Q2212.53 197.368 2214.57 197.368 Q2219.94 197.368 2223.13 200.053 Q2226.32 202.738 2226.32 207.229 Q2226.32 209.358 2225.51 211.28 Q2224.73 213.178 2222.62 215.77 Q2222.04 216.442 2218.94 219.659 Q2215.84 222.854 2210.19 228.617 Z" fill="#000000" fill-rule="evenodd" fill-opacity="1" /></svg>
