<?xml version="1.0" encoding="utf-8"?>
<svg xmlns="http://www.w3.org/2000/svg" xmlns:xlink="http://www.w3.org/1999/xlink" width="600" height="400" viewBox="0 0 2400 1600">
<defs>
  <clipPath id="clip140">
    <rect x="0" y="0" width="2400" height="1600"/>
  </clipPath>
</defs>
<path clip-path="url(#clip140)" d="
M0 1600 L2400 1600 L2400 0 L0 0  Z
  " fill="#ffffff" fill-rule="evenodd" fill-opacity="1"/>
<defs>
  <clipPath id="clip141">
    <rect x="480" y="0" width="1681" height="1600"/>
  </clipPath>
</defs>
<path clip-path="url(#clip140)" d="
M86.9921 1521.01 L2352.76 1521.01 L2352.76 62.9921 L86.9921 62.9921  Z
  " fill="#ffffff" fill-rule="evenodd" fill-opacity="1"/>
<defs>
  <clipPath id="clip142">
    <rect x="86" y="62" width="2267" height="1459"/>
  </clipPath>
</defs>
<polyline clip-path="url(#clip142)" style="stroke:#000000; stroke-linecap:round; stroke-linejoin:round; stroke-width:2; stroke-opacity:0.1; fill:none" points="
  388.619,1521.01 388.619,62.9921 
  "/>
<polyline clip-path="url(#clip142)" style="stroke:#000000; stroke-linecap:round; stroke-linejoin:round; stroke-width:2; stroke-opacity:0.1; fill:none" points="
  863.622,1521.01 863.622,62.9921 
  "/>
<polyline clip-path="url(#clip142)" style="stroke:#000000; stroke-linecap:round; stroke-linejoin:round; stroke-width:2; stroke-opacity:0.1; fill:none" points="
  1338.62,1521.01 1338.62,62.9921 
  "/>
<polyline clip-path="url(#clip142)" style="stroke:#000000; stroke-linecap:round; stroke-linejoin:round; stroke-width:2; stroke-opacity:0.1; fill:none" points="
  1813.63,1521.01 1813.63,62.9921 
  "/>
<polyline clip-path="url(#clip142)" style="stroke:#000000; stroke-linecap:round; stroke-linejoin:round; stroke-width:2; stroke-opacity:0.1; fill:none" points="
  2288.63,1521.01 2288.63,62.9921 
  "/>
<polyline clip-path="url(#clip140)" style="stroke:#000000; stroke-linecap:round; stroke-linejoin:round; stroke-width:4; stroke-opacity:1; fill:none" points="
  86.9921,1521.01 2352.76,1521.01 
  "/>
<polyline clip-path="url(#clip140)" style="stroke:#000000; stroke-linecap:round; stroke-linejoin:round; stroke-width:4; stroke-opacity:1; fill:none" points="
  388.619,1521.01 388.619,1502.11 
  "/>
<polyline clip-path="url(#clip140)" style="stroke:#000000; stroke-linecap:round; stroke-linejoin:round; stroke-width:4; stroke-opacity:1; fill:none" points="
  863.622,1521.01 863.622,1502.11 
  "/>
<polyline clip-path="url(#clip140)" style="stroke:#000000; stroke-linecap:round; stroke-linejoin:round; stroke-width:4; stroke-opacity:1; fill:none" points="
  1338.62,1521.01 1338.62,1502.11 
  "/>
<polyline clip-path="url(#clip140)" style="stroke:#000000; stroke-linecap:round; stroke-linejoin:round; stroke-width:4; stroke-opacity:1; fill:none" points="
  1813.63,1521.01 1813.63,1502.11 
  "/>
<polyline clip-path="url(#clip140)" style="stroke:#000000; stroke-linecap:round; stroke-linejoin:round; stroke-width:4; stroke-opacity:1; fill:none" points="
  2288.63,1521.01 2288.63,1502.11 
  "/>
<path clip-path="url(#clip140)" d="M383.272 1579.47 L399.591 1579.47 L399.591 1583.41 L377.647 1583.41 L377.647 1579.47 Q380.309 1576.72 384.892 1572.09 Q389.499 1567.44 390.679 1566.09 Q392.924 1563.57 393.804 1561.83 Q394.707 1560.07 394.707 1558.38 Q394.707 1555.63 392.762 1553.89 Q390.841 1552.16 387.739 1552.16 Q385.54 1552.16 383.087 1552.92 Q380.656 1553.69 377.878 1555.24 L377.878 1550.51 Q380.702 1549.38 383.156 1548.8 Q385.61 1548.22 387.647 1548.22 Q393.017 1548.22 396.212 1550.91 Q399.406 1553.59 399.406 1558.08 Q399.406 1560.21 398.596 1562.13 Q397.809 1564.03 395.702 1566.63 Q395.124 1567.3 392.022 1570.51 Q388.92 1573.71 383.272 1579.47 Z" fill="#000000" fill-rule="evenodd" fill-opacity="1" /><path clip-path="url(#clip140)" d="M866.631 1552.92 L854.826 1571.37 L866.631 1571.37 L866.631 1552.92 M865.404 1548.85 L871.284 1548.85 L871.284 1571.37 L876.214 1571.37 L876.214 1575.26 L871.284 1575.26 L871.284 1583.41 L866.631 1583.41 L866.631 1575.26 L851.029 1575.26 L851.029 1570.75 L865.404 1548.85 Z" fill="#000000" fill-rule="evenodd" fill-opacity="1" /><path clip-path="url(#clip140)" d="M1339.03 1564.26 Q1335.88 1564.26 1334.03 1566.42 Q1332.2 1568.57 1332.2 1572.32 Q1332.2 1576.05 1334.03 1578.22 Q1335.88 1580.38 1339.03 1580.38 Q1342.18 1580.38 1344.01 1578.22 Q1345.86 1576.05 1345.86 1572.32 Q1345.86 1568.57 1344.01 1566.42 Q1342.18 1564.26 1339.03 1564.26 M1348.31 1549.61 L1348.31 1553.87 Q1346.55 1553.04 1344.75 1552.6 Q1342.96 1552.16 1341.21 1552.16 Q1336.58 1552.16 1334.12 1555.28 Q1331.69 1558.41 1331.34 1564.73 Q1332.71 1562.71 1334.77 1561.65 Q1336.83 1560.56 1339.31 1560.56 Q1344.52 1560.56 1347.53 1563.73 Q1350.56 1566.88 1350.56 1572.32 Q1350.56 1577.64 1347.41 1580.86 Q1344.26 1584.08 1339.03 1584.08 Q1333.03 1584.08 1329.86 1579.5 Q1326.69 1574.89 1326.69 1566.16 Q1326.69 1557.97 1330.58 1553.11 Q1334.47 1548.22 1341.02 1548.22 Q1342.78 1548.22 1344.56 1548.57 Q1346.37 1548.92 1348.31 1549.61 Z" fill="#000000" fill-rule="evenodd" fill-opacity="1" /><path clip-path="url(#clip140)" d="M1813.63 1567 Q1810.29 1567 1808.37 1568.78 Q1806.47 1570.56 1806.47 1573.69 Q1806.47 1576.81 1808.37 1578.59 Q1810.29 1580.38 1813.63 1580.38 Q1816.96 1580.38 1818.88 1578.59 Q1820.8 1576.79 1820.8 1573.69 Q1820.8 1570.56 1818.88 1568.78 Q1816.98 1567 1813.63 1567 M1808.95 1565.01 Q1805.94 1564.26 1804.25 1562.2 Q1802.59 1560.14 1802.59 1557.18 Q1802.59 1553.04 1805.53 1550.63 Q1808.49 1548.22 1813.63 1548.22 Q1818.79 1548.22 1821.73 1550.63 Q1824.67 1553.04 1824.67 1557.18 Q1824.67 1560.14 1822.98 1562.2 Q1821.31 1564.26 1818.33 1565.01 Q1821.71 1565.79 1823.58 1568.08 Q1825.48 1570.38 1825.48 1573.69 Q1825.48 1578.71 1822.4 1581.39 Q1819.35 1584.08 1813.63 1584.08 Q1807.91 1584.08 1804.83 1581.39 Q1801.78 1578.71 1801.78 1573.69 Q1801.78 1570.38 1803.67 1568.08 Q1805.57 1565.79 1808.95 1565.01 M1807.24 1557.62 Q1807.24 1560.31 1808.91 1561.81 Q1810.6 1563.32 1813.63 1563.32 Q1816.64 1563.32 1818.33 1561.81 Q1820.04 1560.31 1820.04 1557.62 Q1820.04 1554.94 1818.33 1553.43 Q1816.64 1551.93 1813.63 1551.93 Q1810.6 1551.93 1808.91 1553.43 Q1807.24 1554.94 1807.24 1557.62 Z" fill="#000000" fill-rule="evenodd" fill-opacity="1" /><path clip-path="url(#clip140)" d="M2263.32 1579.47 L2270.96 1579.47 L2270.96 1553.11 L2262.65 1554.77 L2262.65 1550.51 L2270.91 1548.85 L2275.59 1548.85 L2275.59 1579.47 L2283.23 1579.47 L2283.23 1583.41 L2263.32 1583.41 L2263.32 1579.47 Z" fill="#000000" fill-rule="evenodd" fill-opacity="1" /><path clip-path="url(#clip140)" d="M2302.67 1551.93 Q2299.06 1551.93 2297.23 1555.49 Q2295.42 1559.03 2295.42 1566.16 Q2295.42 1573.27 2297.23 1576.83 Q2299.06 1580.38 2302.67 1580.38 Q2306.3 1580.38 2308.11 1576.83 Q2309.94 1573.27 2309.94 1566.16 Q2309.94 1559.03 2308.11 1555.49 Q2306.3 1551.93 2302.67 1551.93 M2302.67 1548.22 Q2308.48 1548.22 2311.54 1552.83 Q2314.61 1557.41 2314.61 1566.16 Q2314.61 1574.89 2311.54 1579.5 Q2308.48 1584.08 2302.67 1584.08 Q2296.86 1584.08 2293.78 1579.5 Q2290.73 1574.89 2290.73 1566.16 Q2290.73 1557.41 2293.78 1552.83 Q2296.86 1548.22 2302.67 1548.22 Z" fill="#000000" fill-rule="evenodd" fill-opacity="1" /><polyline clip-path="url(#clip142)" style="stroke:#000000; stroke-linecap:round; stroke-linejoin:round; stroke-width:2; stroke-opacity:0.1; fill:none" points="
  86.9921,1236.23 2352.76,1236.23 
  "/>
<polyline clip-path="url(#clip142)" style="stroke:#000000; stroke-linecap:round; stroke-linejoin:round; stroke-width:2; stroke-opacity:0.1; fill:none" points="
  86.9921,913.423 2352.76,913.423 
  "/>
<polyline clip-path="url(#clip142)" style="stroke:#000000; stroke-linecap:round; stroke-linejoin:round; stroke-width:2; stroke-opacity:0.1; fill:none" points="
  86.9921,590.619 2352.76,590.619 
  "/>
<polyline clip-path="url(#clip142)" style="stroke:#000000; stroke-linecap:round; stroke-linejoin:round; stroke-width:2; stroke-opacity:0.1; fill:none" points="
  86.9921,267.815 2352.76,267.815 
  "/>
<polyline clip-path="url(#clip140)" style="stroke:#000000; stroke-linecap:round; stroke-linejoin:round; stroke-width:4; stroke-opacity:1; fill:none" points="
  86.9921,1521.01 86.9921,62.9921 
  "/>
<polyline clip-path="url(#clip140)" style="stroke:#000000; stroke-linecap:round; stroke-linejoin:round; stroke-width:4; stroke-opacity:1; fill:none" points="
  86.9921,1236.23 105.89,1236.23 
  "/>
<polyline clip-path="url(#clip140)" style="stroke:#000000; stroke-linecap:round; stroke-linejoin:round; stroke-width:4; stroke-opacity:1; fill:none" points="
  86.9921,913.423 105.89,913.423 
  "/>
<polyline clip-path="url(#clip140)" style="stroke:#000000; stroke-linecap:round; stroke-linejoin:round; stroke-width:4; stroke-opacity:1; fill:none" points="
  86.9921,590.619 105.89,590.619 
  "/>
<polyline clip-path="url(#clip140)" style="stroke:#000000; stroke-linecap:round; stroke-linejoin:round; stroke-width:4; stroke-opacity:1; fill:none" points="
  86.9921,267.815 105.89,267.815 
  "/>
<path clip-path="url(#clip140)" d="M-4.58628 1222.03 Q-8.19737 1222.03 -10.0261 1225.59 Q-11.8316 1229.13 -11.8316 1236.26 Q-11.8316 1243.37 -10.0261 1246.93 Q-8.19737 1250.47 -4.58628 1250.47 Q-0.95204 1250.47 0.853506 1246.93 Q2.6822 1243.37 2.6822 1236.26 Q2.6822 1229.13 0.853506 1225.59 Q-0.95204 1222.03 -4.58628 1222.03 M-4.58628 1218.32 Q1.22387 1218.32 4.27941 1222.93 Q7.3581 1227.51 7.3581 1236.26 Q7.3581 1244.99 4.27941 1249.59 Q1.22387 1254.18 -4.58628 1254.18 Q-10.3964 1254.18 -13.4751 1249.59 Q-16.5307 1244.99 -16.5307 1236.26 Q-16.5307 1227.51 -13.4751 1222.93 Q-10.3964 1218.32 -4.58628 1218.32 Z" fill="#000000" fill-rule="evenodd" fill-opacity="1" /><path clip-path="url(#clip140)" d="M15.5756 1247.63 L20.4599 1247.63 L20.4599 1253.51 L15.5756 1253.51 L15.5756 1247.63 Z" fill="#000000" fill-rule="evenodd" fill-opacity="1" /><path clip-path="url(#clip140)" d="M34.6728 1249.57 L50.9921 1249.57 L50.9921 1253.51 L29.0478 1253.51 L29.0478 1249.57 Q31.7098 1246.82 36.2931 1242.19 Q40.8996 1237.53 42.0801 1236.19 Q44.3255 1233.67 45.2051 1231.93 Q46.1079 1230.17 46.1079 1228.48 Q46.1079 1225.73 44.1635 1223.99 Q42.2422 1222.26 39.1403 1222.26 Q36.9413 1222.26 34.4876 1223.02 Q32.057 1223.78 29.2793 1225.34 L29.2793 1220.61 Q32.1033 1219.48 34.557 1218.9 Q37.0107 1218.32 39.0477 1218.32 Q44.4181 1218.32 47.6125 1221.01 Q50.8069 1223.69 50.8069 1228.18 Q50.8069 1230.31 49.9968 1232.23 Q49.2097 1234.13 47.1033 1236.72 Q46.5246 1237.4 43.4227 1240.61 Q40.3209 1243.81 34.6728 1249.57 Z" fill="#000000" fill-rule="evenodd" fill-opacity="1" /><path clip-path="url(#clip140)" d="M-6.6696 899.221 Q-10.2807 899.221 -12.1094 902.786 Q-13.9149 906.328 -13.9149 913.457 Q-13.9149 920.564 -12.1094 924.129 Q-10.2807 927.67 -6.6696 927.67 Q-3.03536 927.67 -1.22982 924.129 Q0.598877 920.564 0.598877 913.457 Q0.598877 906.328 -1.22982 902.786 Q-3.03536 899.221 -6.6696 899.221 M-6.6696 895.518 Q-0.859448 895.518 2.19609 900.124 Q5.27478 904.707 5.27478 913.457 Q5.27478 922.184 2.19609 926.791 Q-0.859448 931.374 -6.6696 931.374 Q-12.4798 931.374 -15.5584 926.791 Q-18.614 922.184 -18.614 913.457 Q-18.614 904.707 -15.5584 900.124 Q-12.4798 895.518 -6.6696 895.518 Z" fill="#000000" fill-rule="evenodd" fill-opacity="1" /><path clip-path="url(#clip140)" d="M13.4923 924.823 L18.3766 924.823 L18.3766 930.703 L13.4923 930.703 L13.4923 924.823 Z" fill="#000000" fill-rule="evenodd" fill-opacity="1" /><path clip-path="url(#clip140)" d="M41.4088 900.217 L29.6034 918.666 L41.4088 918.666 L41.4088 900.217 M40.182 896.143 L46.0616 896.143 L46.0616 918.666 L50.9921 918.666 L50.9921 922.555 L46.0616 922.555 L46.0616 930.703 L41.4088 930.703 L41.4088 922.555 L25.8071 922.555 L25.8071 918.041 L40.182 896.143 Z" fill="#000000" fill-rule="evenodd" fill-opacity="1" /><path clip-path="url(#clip140)" d="M-6.34553 576.418 Q-9.95662 576.418 -11.7853 579.982 Q-13.5909 583.524 -13.5909 590.654 Q-13.5909 597.76 -11.7853 601.325 Q-9.95662 604.867 -6.34553 604.867 Q-2.71129 604.867 -0.905744 601.325 Q0.92295 597.76 0.92295 590.654 Q0.92295 583.524 -0.905744 579.982 Q-2.71129 576.418 -6.34553 576.418 M-6.34553 572.714 Q-0.535376 572.714 2.52016 577.32 Q5.59885 581.904 5.59885 590.654 Q5.59885 599.381 2.52016 603.987 Q-0.535376 608.57 -6.34553 608.57 Q-12.1557 608.57 -15.2344 603.987 Q-18.2899 599.381 -18.2899 590.654 Q-18.2899 581.904 -15.2344 577.32 Q-12.1557 572.714 -6.34553 572.714 Z" fill="#000000" fill-rule="evenodd" fill-opacity="1" /><path clip-path="url(#clip140)" d="M13.8164 602.019 L18.7006 602.019 L18.7006 607.899 L13.8164 607.899 L13.8164 602.019 Z" fill="#000000" fill-rule="evenodd" fill-opacity="1" /><path clip-path="url(#clip140)" d="M39.4644 588.756 Q36.3163 588.756 34.4644 590.908 Q32.6357 593.061 32.6357 596.811 Q32.6357 600.538 34.4644 602.714 Q36.3163 604.867 39.4644 604.867 Q42.6125 604.867 44.4412 602.714 Q46.2931 600.538 46.2931 596.811 Q46.2931 593.061 44.4412 590.908 Q42.6125 588.756 39.4644 588.756 M48.7468 574.103 L48.7468 578.362 Q46.9875 577.529 45.182 577.089 Q43.3996 576.649 41.6403 576.649 Q37.0107 576.649 34.557 579.774 Q32.1265 582.899 31.7793 589.219 Q33.145 587.205 35.2052 586.14 Q37.2653 585.052 39.7422 585.052 Q44.9505 585.052 47.9597 588.223 Q50.9921 591.371 50.9921 596.811 Q50.9921 602.135 47.844 605.353 Q44.6959 608.57 39.4644 608.57 Q33.4691 608.57 30.2978 603.987 Q27.1265 599.381 27.1265 590.654 Q27.1265 582.459 31.0154 577.598 Q34.9042 572.714 41.4551 572.714 Q43.2144 572.714 44.9968 573.061 Q46.8023 573.408 48.7468 574.103 Z" fill="#000000" fill-rule="evenodd" fill-opacity="1" /><path clip-path="url(#clip140)" d="M-6.0909 253.614 Q-9.70199 253.614 -11.5307 257.179 Q-13.3362 260.72 -13.3362 267.85 Q-13.3362 274.956 -11.5307 278.521 Q-9.70199 282.063 -6.0909 282.063 Q-2.45666 282.063 -0.651116 278.521 Q1.17758 274.956 1.17758 267.85 Q1.17758 260.72 -0.651116 257.179 Q-2.45666 253.614 -6.0909 253.614 M-6.0909 249.91 Q-0.280747 249.91 2.77479 254.517 Q5.85348 259.1 5.85348 267.85 Q5.85348 276.577 2.77479 281.183 Q-0.280747 285.767 -6.0909 285.767 Q-11.9011 285.767 -14.9797 281.183 Q-18.0353 276.577 -18.0353 267.85 Q-18.0353 259.1 -14.9797 254.517 Q-11.9011 249.91 -6.0909 249.91 Z" fill="#000000" fill-rule="evenodd" fill-opacity="1" /><path clip-path="url(#clip140)" d="M14.071 279.216 L18.9553 279.216 L18.9553 285.095 L14.071 285.095 L14.071 279.216 Z" fill="#000000" fill-rule="evenodd" fill-opacity="1" /><path clip-path="url(#clip140)" d="M39.1403 268.683 Q35.807 268.683 33.8857 270.466 Q31.9876 272.248 31.9876 275.373 Q31.9876 278.498 33.8857 280.281 Q35.807 282.063 39.1403 282.063 Q42.4737 282.063 44.3949 280.281 Q46.3162 278.475 46.3162 275.373 Q46.3162 272.248 44.3949 270.466 Q42.4968 268.683 39.1403 268.683 M34.4644 266.693 Q31.4552 265.952 29.7654 263.892 Q28.0987 261.832 28.0987 258.869 Q28.0987 254.725 31.0385 252.318 Q34.0015 249.91 39.1403 249.91 Q44.3023 249.91 47.2421 252.318 Q50.1819 254.725 50.1819 258.869 Q50.1819 261.832 48.4921 263.892 Q46.8255 265.952 43.8394 266.693 Q47.219 267.48 49.094 269.771 Q50.9921 272.063 50.9921 275.373 Q50.9921 280.396 47.9134 283.081 Q44.8579 285.767 39.1403 285.767 Q33.4228 285.767 30.3441 283.081 Q27.2885 280.396 27.2885 275.373 Q27.2885 272.063 29.1867 269.771 Q31.0848 267.48 34.4644 266.693 M32.7515 259.308 Q32.7515 261.994 34.4181 263.498 Q36.1079 265.003 39.1403 265.003 Q42.1496 265.003 43.8394 263.498 Q45.5523 261.994 45.5523 259.308 Q45.5523 256.623 43.8394 255.119 Q42.1496 253.614 39.1403 253.614 Q36.1079 253.614 34.4181 255.119 Q32.7515 256.623 32.7515 259.308 Z" fill="#000000" fill-rule="evenodd" fill-opacity="1" /><path clip-path="url(#clip140)" d="M1022.76 12.096 L1073.92 12.096 L1073.92 18.9825 L1052.45 18.9825 L1052.45 72.576 L1044.23 72.576 L1044.23 18.9825 L1022.76 18.9825 L1022.76 12.096 Z" fill="#000000" fill-rule="evenodd" fill-opacity="1" /><path clip-path="url(#clip140)" d="M1063.43 27.2059 L1070.88 27.2059 L1080.2 62.6108 L1089.48 27.2059 L1098.27 27.2059 L1107.58 62.6108 L1116.86 27.2059 L1124.31 27.2059 L1112.44 72.576 L1103.65 72.576 L1093.89 35.3887 L1084.09 72.576 L1075.3 72.576 L1063.43 27.2059 Z" fill="#000000" fill-rule="evenodd" fill-opacity="1" /><path clip-path="url(#clip140)" d="M1153.2 32.4315 Q1147.2 32.4315 1143.72 37.1306 Q1140.23 41.7891 1140.23 49.9314 Q1140.23 58.0738 1143.68 62.7728 Q1147.16 67.4314 1153.2 67.4314 Q1159.15 67.4314 1162.63 62.7323 Q1166.12 58.0333 1166.12 49.9314 Q1166.12 41.8701 1162.63 37.1711 Q1159.15 32.4315 1153.2 32.4315 M1153.2 26.1121 Q1162.92 26.1121 1168.47 32.4315 Q1174.02 38.7509 1174.02 49.9314 Q1174.02 61.0714 1168.47 67.4314 Q1162.92 73.7508 1153.2 73.7508 Q1143.43 73.7508 1137.88 67.4314 Q1132.37 61.0714 1132.37 49.9314 Q1132.37 38.7509 1137.88 32.4315 Q1143.43 26.1121 1153.2 26.1121 Z" fill="#000000" fill-rule="evenodd" fill-opacity="1" /><path clip-path="url(#clip140)" d="M1213.07 12.096 L1221.25 12.096 L1221.25 65.6895 L1250.7 65.6895 L1250.7 72.576 L1213.07 72.576 L1213.07 12.096 Z" fill="#000000" fill-rule="evenodd" fill-opacity="1" /><path clip-path="url(#clip140)" d="M1258.97 27.2059 L1266.42 27.2059 L1266.42 72.576 L1258.97 72.576 L1258.97 27.2059 M1258.97 9.54393 L1266.42 9.54393 L1266.42 18.9825 L1258.97 18.9825 L1258.97 9.54393 Z" fill="#000000" fill-rule="evenodd" fill-opacity="1" /><path clip-path="url(#clip140)" d="M1319.73 45.1919 L1319.73 72.576 L1312.28 72.576 L1312.28 45.4349 Q1312.28 38.994 1309.76 35.7938 Q1307.25 32.5936 1302.23 32.5936 Q1296.19 32.5936 1292.71 36.4419 Q1289.23 40.2903 1289.23 46.9338 L1289.23 72.576 L1281.73 72.576 L1281.73 27.2059 L1289.23 27.2059 L1289.23 34.2544 Q1291.9 30.163 1295.5 28.1376 Q1299.15 26.1121 1303.89 26.1121 Q1311.71 26.1121 1315.72 30.9732 Q1319.73 35.7938 1319.73 45.1919 Z" fill="#000000" fill-rule="evenodd" fill-opacity="1" /><path clip-path="url(#clip140)" d="M1373.4 48.0275 L1373.4 51.6733 L1339.13 51.6733 Q1339.62 59.3701 1343.75 63.421 Q1347.92 67.4314 1355.34 67.4314 Q1359.63 67.4314 1363.64 66.3781 Q1367.69 65.3249 1371.66 63.2184 L1371.66 70.267 Q1367.65 71.9684 1363.44 72.8596 Q1359.23 73.7508 1354.89 73.7508 Q1344.03 73.7508 1337.67 67.4314 Q1331.35 61.1119 1331.35 50.3365 Q1331.35 39.1965 1337.35 32.6746 Q1343.39 26.1121 1353.59 26.1121 Q1362.75 26.1121 1368.06 32.0264 Q1373.4 37.9003 1373.4 48.0275 M1365.95 45.84 Q1365.87 39.7232 1362.51 36.0774 Q1359.18 32.4315 1353.68 32.4315 Q1347.44 32.4315 1343.67 35.9558 Q1339.94 39.4801 1339.38 45.8805 L1365.95 45.84 Z" fill="#000000" fill-rule="evenodd" fill-opacity="1" /><path clip-path="url(#clip140)" d="M1414.56 28.5427 L1414.56 35.5912 Q1411.4 33.9709 1408 33.1607 Q1404.6 32.3505 1400.95 32.3505 Q1395.4 32.3505 1392.6 34.0519 Q1389.85 35.7533 1389.85 39.156 Q1389.85 41.7486 1391.83 43.2475 Q1393.82 44.7058 1399.82 46.0426 L1402.37 46.6097 Q1410.31 48.3111 1413.63 51.4303 Q1416.99 54.509 1416.99 60.0587 Q1416.99 66.3781 1411.97 70.0644 Q1406.99 73.7508 1398.24 73.7508 Q1394.59 73.7508 1390.62 73.0216 Q1386.69 72.3329 1382.32 70.9151 L1382.32 63.2184 Q1386.45 65.3654 1390.46 66.4591 Q1394.47 67.5124 1398.4 67.5124 Q1403.66 67.5124 1406.5 65.73 Q1409.33 63.9071 1409.33 60.6258 Q1409.33 57.5877 1407.27 55.9673 Q1405.24 54.3469 1398.32 52.8481 L1395.72 52.2405 Q1388.8 50.7821 1385.72 47.7845 Q1382.64 44.7463 1382.64 39.4801 Q1382.64 33.0797 1387.18 29.5959 Q1391.71 26.1121 1400.06 26.1121 Q1404.19 26.1121 1407.84 26.7198 Q1411.48 27.3274 1414.56 28.5427 Z" fill="#000000" fill-rule="evenodd" fill-opacity="1" /><polyline clip-path="url(#clip142)" style="stroke:#009af9; stroke-linecap:round; stroke-linejoin:round; stroke-width:12; stroke-opacity:1; fill:none" points="
  151.118,607.127 388.619,1033.99 626.12,1275.43 863.622,1479.74 1101.12,877.96 1338.62,836.749 1576.13,874.538 1813.63,1276.08 2051.13,1207.3 2288.63,169.879 
  
  "/>
<polyline clip-path="url(#clip142)" style="stroke:#e26f46; stroke-linecap:round; stroke-linejoin:round; stroke-width:12; stroke-opacity:1; fill:none" points="
  151.118,174.584 388.619,1177.21 626.12,706.01 863.622,134.866 1101.12,897.283 1338.62,1079.13 1576.13,982.955 1813.63,104.257 2051.13,1389.14 2288.63,1291.39 
  
  "/>
<path clip-path="url(#clip140)" d="
M1890.48 267.113 L2277.23 267.113 L2277.23 111.593 L1890.48 111.593  Z
  " fill="#ffffff" fill-rule="evenodd" fill-opacity="1"/>
<polyline clip-path="url(#clip140)" style="stroke:#000000; stroke-linecap:round; stroke-linejoin:round; stroke-width:4; stroke-opacity:1; fill:none" points="
  1890.48,267.113 2277.23,267.113 2277.23,111.593 1890.48,111.593 1890.48,267.113 
  "/>
<polyline clip-path="url(#clip140)" style="stroke:#009af9; stroke-linecap:round; stroke-linejoin:round; stroke-width:4; stroke-opacity:1; fill:none" points="
  1915.65,163.433 2066.71,163.433 
  "/>
<path clip-path="url(#clip140)" d="M2091.88 146.153 L2096.56 146.153 L2096.56 176.777 L2113.39 176.777 L2113.39 180.713 L2091.88 180.713 L2091.88 146.153 Z" fill="#000000" fill-rule="evenodd" fill-opacity="1" /><path clip-path="url(#clip140)" d="M2118.11 154.787 L2122.37 154.787 L2122.37 180.713 L2118.11 180.713 L2118.11 154.787 M2118.11 144.694 L2122.37 144.694 L2122.37 150.088 L2118.11 150.088 L2118.11 144.694 Z" fill="#000000" fill-rule="evenodd" fill-opacity="1" /><path clip-path="url(#clip140)" d="M2152.83 165.065 L2152.83 180.713 L2148.57 180.713 L2148.57 165.203 Q2148.57 161.523 2147.14 159.694 Q2145.7 157.866 2142.83 157.866 Q2139.38 157.866 2137.39 160.065 Q2135.4 162.264 2135.4 166.06 L2135.4 180.713 L2131.12 180.713 L2131.12 154.787 L2135.4 154.787 L2135.4 158.815 Q2136.93 156.477 2138.99 155.319 Q2141.07 154.162 2143.78 154.162 Q2148.25 154.162 2150.54 156.94 Q2152.83 159.694 2152.83 165.065 Z" fill="#000000" fill-rule="evenodd" fill-opacity="1" /><path clip-path="url(#clip140)" d="M2183.5 166.685 L2183.5 168.768 L2163.92 168.768 Q2164.2 173.166 2166.56 175.481 Q2168.94 177.773 2173.18 177.773 Q2175.63 177.773 2177.92 177.171 Q2180.24 176.569 2182.51 175.365 L2182.51 179.393 Q2180.21 180.365 2177.81 180.875 Q2175.4 181.384 2172.92 181.384 Q2166.72 181.384 2163.08 177.773 Q2159.47 174.162 2159.47 168.004 Q2159.47 161.639 2162.9 157.912 Q2166.35 154.162 2172.18 154.162 Q2177.41 154.162 2180.45 157.541 Q2183.5 160.898 2183.5 166.685 M2179.24 165.435 Q2179.2 161.94 2177.27 159.856 Q2175.38 157.773 2172.23 157.773 Q2168.66 157.773 2166.51 159.787 Q2164.38 161.801 2164.06 165.458 L2179.24 165.435 Z" fill="#000000" fill-rule="evenodd" fill-opacity="1" /><path clip-path="url(#clip140)" d="M2206.97 176.777 L2214.61 176.777 L2214.61 150.412 L2206.3 152.079 L2206.3 147.819 L2214.57 146.153 L2219.24 146.153 L2219.24 176.777 L2226.88 176.777 L2226.88 180.713 L2206.97 180.713 L2206.97 176.777 Z" fill="#000000" fill-rule="evenodd" fill-opacity="1" /><polyline clip-path="url(#clip140)" style="stroke:#e26f46; stroke-linecap:round; stroke-linejoin:round; stroke-width:4; stroke-opacity:1; fill:none" points="
  1915.65,215.273 2066.71,215.273 
  "/>
<path clip-path="url(#clip140)" d="M2091.88 197.993 L2096.56 197.993 L2096.56 228.617 L2113.39 228.617 L2113.39 232.553 L2091.88 232.553 L2091.88 197.993 Z" fill="#000000" fill-rule="evenodd" fill-opacity="1" /><path clip-path="url(#clip140)" d="M2118.11 206.627 L2122.37 206.627 L2122.37 232.553 L2118.11 232.553 L2118.11 206.627 M2118.11 196.534 L2122.37 196.534 L2122.37 201.928 L2118.11 201.928 L2118.11 196.534 Z" fill="#000000" fill-rule="evenodd" fill-opacity="1" /><path clip-path="url(#clip140)" d="M2152.83 216.905 L2152.83 232.553 L2148.57 232.553 L2148.57 217.043 Q2148.57 213.363 2147.14 211.534 Q2145.7 209.706 2142.83 209.706 Q2139.38 209.706 2137.39 211.905 Q2135.4 214.104 2135.4 217.9 L2135.4 232.553 L2131.12 232.553 L2131.12 206.627 L2135.4 206.627 L2135.4 210.655 Q2136.93 208.317 2138.99 207.159 Q2141.07 206.002 2143.78 206.002 Q2148.25 206.002 2150.54 208.78 Q2152.83 211.534 2152.83 216.905 Z" fill="#000000" fill-rule="evenodd" fill-opacity="1" /><path clip-path="url(#clip140)" d="M2183.5 218.525 L2183.5 220.608 L2163.92 220.608 Q2164.2 225.006 2166.56 227.321 Q2168.94 229.613 2173.18 229.613 Q2175.63 229.613 2177.92 229.011 Q2180.24 228.409 2182.51 227.205 L2182.51 231.233 Q2180.21 232.205 2177.81 232.715 Q2175.4 233.224 2172.92 233.224 Q2166.72 233.224 2163.08 229.613 Q2159.47 226.002 2159.47 219.844 Q2159.47 213.479 2162.9 209.752 Q2166.35 206.002 2172.18 206.002 Q2177.41 206.002 2180.45 209.381 Q2183.5 212.738 2183.5 218.525 M2179.24 217.275 Q2179.2 213.78 2177.27 211.696 Q2175.38 209.613 2172.23 209.613 Q2168.66 209.613 2166.51 211.627 Q2164.38 213.641 2164.06 217.298 L2179.24 217.275 Z" fill="#000000" fill-rule="evenodd" fill-opacity="1" /><path clip-path="url(#clip140)" d="M2210.19 228.617 L2226.51 228.617 L2226.51 232.553 L2204.57 232.553 L2204.57 228.617 Q2207.23 225.863 2211.81 221.233 Q2216.42 216.581 2217.6 215.238 Q2219.84 212.715 2220.72 210.979 Q2221.63 209.219 2221.63 207.53 Q2221.63 204.775 2219.68 203.039 Q2217.76 201.303 2214.66 201.303 Q2212.46 201.303 2210.01 202.067 Q2207.57 202.831 2204.8 204.382 L2204.8 199.659 Q2207.62 198.525 2210.07 197.946 Q2212.53 197.368 2214.57 197.368 Q2219.94 197.368 2223.13 200.053 Q2226.32 202.738 2226.32 207.229 Q2226.32 209.358 2225.51 211.28 Q2224.73 213.178 2222.62 215.77 Q2222.04 216.442 2218.94 219.659 Q2215.84 222.854 2210.19 228.617 Z" fill="#000000" fill-rule="evenodd" fill-opacity="1" /></svg>
