<?xml version="1.0" encoding="utf-8"?>
<svg xmlns="http://www.w3.org/2000/svg" xmlns:xlink="http://www.w3.org/1999/xlink" width="600" height="400" viewBox="0 0 2400 1600">
<defs>
  <clipPath id="clip360">
    <rect x="0" y="0" width="2400" height="1600"/>
  </clipPath>
</defs>
<path clip-path="url(#clip360)" d="
M0 1600 L2400 1600 L2400 0 L0 0  Z
  " fill="#ffffff" fill-rule="evenodd" fill-opacity="1"/>
<defs>
  <clipPath id="clip361">
    <rect x="480" y="0" width="1681" height="1600"/>
  </clipPath>
</defs>
<path clip-path="url(#clip360)" d="
M86.9921 1521.01 L2352.76 1521.01 L2352.76 62.9921 L86.9921 62.9921  Z
  " fill="#ffffff" fill-rule="evenodd" fill-opacity="1"/>
<defs>
  <clipPath id="clip362">
    <rect x="86" y="62" width="2267" height="1459"/>
  </clipPath>
</defs>
<polyline clip-path="url(#clip362)" style="stroke:#000000; stroke-linecap:round; stroke-linejoin:round; stroke-width:2; stroke-opacity:0.1; fill:none" points="
  388.619,1521.01 388.619,62.9921 
  "/>
<polyline clip-path="url(#clip362)" style="stroke:#000000; stroke-linecap:round; stroke-linejoin:round; stroke-width:2; stroke-opacity:0.1; fill:none" points="
  863.622,1521.01 863.622,62.9921 
  "/>
<polyline clip-path="url(#clip362)" style="stroke:#000000; stroke-linecap:round; stroke-linejoin:round; stroke-width:2; stroke-opacity:0.1; fill:none" points="
  1338.62,1521.01 1338.62,62.9921 
  "/>
<polyline clip-path="url(#clip362)" style="stroke:#000000; stroke-linecap:round; stroke-linejoin:round; stroke-width:2; stroke-opacity:0.1; fill:none" points="
  1813.63,1521.01 1813.63,62.9921 
  "/>
<polyline clip-path="url(#clip362)" style="stroke:#000000; stroke-linecap:round; stroke-linejoin:round; stroke-width:2; stroke-opacity:0.1; fill:none" points="
  2288.63,1521.01 2288.63,62.9921 
  "/>
<polyline clip-path="url(#clip360)" style="stroke:#000000; stroke-linecap:round; stroke-linejoin:round; stroke-width:4; stroke-opacity:1; fill:none" points="
  86.9921,1521.01 2352.76,1521.01 
  "/>
<polyline clip-path="url(#clip360)" style="stroke:#000000; stroke-linecap:round; stroke-linejoin:round; stroke-width:4; stroke-opacity:1; fill:none" points="
  388.619,1521.01 388.619,1502.11 
  "/>
<polyline clip-path="url(#clip360)" style="stroke:#000000; stroke-linecap:round; stroke-linejoin:round; stroke-width:4; stroke-opacity:1; fill:none" points="
  863.622,1521.01 863.622,1502.11 
  "/>
<polyline clip-path="url(#clip360)" style="stroke:#000000; stroke-linecap:round; stroke-linejoin:round; stroke-width:4; stroke-opacity:1; fill:none" points="
  1338.62,1521.01 1338.62,1502.11 
  "/>
<polyline clip-path="url(#clip360)" style="stroke:#000000; stroke-linecap:round; stroke-linejoin:round; stroke-width:4; stroke-opacity:1; fill:none" points="
  1813.63,1521.01 1813.63,1502.11 
  "/>
<polyline clip-path="url(#clip360)" style="stroke:#000000; stroke-linecap:round; stroke-linejoin:round; stroke-width:4; stroke-opacity:1; fill:none" points="
  2288.63,1521.01 2288.63,1502.11 
  "/>
<path clip-path="url(#clip360)" d="M383.272 1579.47 L399.591 1579.47 L399.591 1583.41 L377.647 1583.41 L377.647 1579.47 Q380.309 1576.72 384.892 1572.09 Q389.499 1567.44 390.679 1566.09 Q392.924 1563.57 393.804 1561.83 Q394.707 1560.07 394.707 1558.38 Q394.707 1555.63 392.762 1553.89 Q390.841 1552.16 387.739 1552.16 Q385.54 1552.16 383.087 1552.92 Q380.656 1553.69 377.878 1555.24 L377.878 1550.51 Q380.702 1549.38 383.156 1548.8 Q385.61 1548.22 387.647 1548.22 Q393.017 1548.22 396.212 1550.91 Q399.406 1553.59 399.406 1558.08 Q399.406 1560.21 398.596 1562.13 Q397.809 1564.03 395.702 1566.63 Q395.124 1567.3 392.022 1570.51 Q388.92 1573.71 383.272 1579.47 Z" fill="#000000" fill-rule="evenodd" fill-opacity="1" /><path clip-path="url(#clip360)" d="M866.631 1552.92 L854.826 1571.37 L866.631 1571.37 L866.631 1552.92 M865.404 1548.85 L871.284 1548.85 L871.284 1571.37 L876.214 1571.37 L876.214 1575.26 L871.284 1575.26 L871.284 1583.41 L866.631 1583.41 L866.631 1575.26 L851.029 1575.26 L851.029 1570.75 L865.404 1548.85 Z" fill="#000000" fill-rule="evenodd" fill-opacity="1" /><path clip-path="url(#clip360)" d="M1339.03 1564.26 Q1335.88 1564.26 1334.03 1566.42 Q1332.2 1568.57 1332.2 1572.32 Q1332.2 1576.05 1334.03 1578.22 Q1335.88 1580.38 1339.03 1580.38 Q1342.18 1580.38 1344.01 1578.22 Q1345.86 1576.05 1345.86 1572.32 Q1345.86 1568.57 1344.01 1566.42 Q1342.18 1564.26 1339.03 1564.26 M1348.31 1549.61 L1348.31 1553.87 Q1346.55 1553.04 1344.75 1552.6 Q1342.96 1552.16 1341.21 1552.16 Q1336.58 1552.16 1334.12 1555.28 Q1331.69 1558.41 1331.34 1564.73 Q1332.71 1562.71 1334.77 1561.65 Q1336.83 1560.56 1339.31 1560.56 Q1344.52 1560.56 1347.53 1563.73 Q1350.56 1566.88 1350.56 1572.32 Q1350.56 1577.64 1347.41 1580.86 Q1344.26 1584.08 1339.03 1584.08 Q1333.03 1584.08 1329.86 1579.5 Q1326.69 1574.89 1326.69 1566.16 Q1326.69 1557.97 1330.58 1553.11 Q1334.47 1548.22 1341.02 1548.22 Q1342.78 1548.22 1344.56 1548.57 Q1346.37 1548.92 1348.31 1549.61 Z" fill="#000000" fill-rule="evenodd" fill-opacity="1" /><path clip-path="url(#clip360)" d="M1813.63 1567 Q1810.29 1567 1808.37 1568.78 Q1806.47 1570.56 1806.47 1573.69 Q1806.47 1576.81 1808.37 1578.59 Q1810.29 1580.38 1813.63 1580.38 Q1816.96 1580.38 1818.88 1578.59 Q1820.8 1576.79 1820.8 1573.69 Q1820.8 1570.56 1818.88 1568.78 Q1816.98 1567 1813.63 1567 M1808.95 1565.01 Q1805.94 1564.26 1804.25 1562.2 Q1802.59 1560.14 1802.59 1557.18 Q1802.59 1553.04 1805.53 1550.63 Q1808.49 1548.22 1813.63 1548.22 Q1818.79 1548.22 1821.73 1550.63 Q1824.67 1553.04 1824.67 1557.18 Q1824.67 1560.14 1822.98 1562.2 Q1821.31 1564.26 1818.33 1565.01 Q1821.71 1565.79 1823.58 1568.08 Q1825.48 1570.38 1825.48 1573.69 Q1825.48 1578.71 1822.4 1581.39 Q1819.35 1584.08 1813.63 1584.08 Q1807.91 1584.08 1804.83 1581.39 Q1801.78 1578.71 1801.78 1573.69 Q1801.78 1570.38 1803.67 1568.08 Q1805.57 1565.79 1808.95 1565.01 M1807.24 1557.62 Q1807.24 1560.31 1808.91 1561.81 Q1810.6 1563.32 1813.63 1563.32 Q1816.64 1563.32 1818.33 1561.81 Q1820.04 1560.31 1820.04 1557.62 Q1820.04 1554.94 1818.33 1553.43 Q1816.64 1551.93 1813.63 1551.93 Q1810.6 1551.93 1808.91 1553.43 Q1807.24 1554.94 1807.24 1557.62 Z" fill="#000000" fill-rule="evenodd" fill-opacity="1" /><path clip-path="url(#clip360)" d="M2263.32 1579.47 L2270.96 1579.47 L2270.96 1553.11 L2262.65 1554.77 L2262.65 1550.51 L2270.91 1548.85 L2275.59 1548.85 L2275.59 1579.47 L2283.23 1579.47 L2283.23 1583.41 L2263.32 1583.41 L2263.32 1579.47 Z" fill="#000000" fill-rule="evenodd" fill-opacity="1" /><path clip-path="url(#clip360)" d="M2302.67 1551.93 Q2299.06 1551.93 2297.23 1555.49 Q2295.42 1559.03 2295.42 1566.16 Q2295.42 1573.27 2297.23 1576.83 Q2299.06 1580.38 2302.67 1580.38 Q2306.3 1580.38 2308.11 1576.83 Q2309.94 1573.27 2309.94 1566.16 Q2309.94 1559.03 2308.11 1555.49 Q2306.3 1551.93 2302.67 1551.93 M2302.67 1548.22 Q2308.48 1548.22 2311.54 1552.83 Q2314.61 1557.41 2314.61 1566.16 Q2314.61 1574.89 2311.54 1579.5 Q2308.48 1584.08 2302.67 1584.08 Q2296.86 1584.08 2293.78 1579.5 Q2290.73 1574.89 2290.73 1566.16 Q2290.73 1557.41 2293.78 1552.83 Q2296.86 1548.22 2302.67 1548.22 Z" fill="#000000" fill-rule="evenodd" fill-opacity="1" /><polyline clip-path="url(#clip362)" style="stroke:#000000; stroke-linecap:round; stroke-linejoin:round; stroke-width:2; stroke-opacity:0.1; fill:none" points="
  86.9921,1512.7 2352.76,1512.7 
  "/>
<polyline clip-path="url(#clip362)" style="stroke:#000000; stroke-linecap:round; stroke-linejoin:round; stroke-width:2; stroke-opacity:0.1; fill:none" points="
  86.9921,1157.66 2352.76,1157.66 
  "/>
<polyline clip-path="url(#clip362)" style="stroke:#000000; stroke-linecap:round; stroke-linejoin:round; stroke-width:2; stroke-opacity:0.1; fill:none" points="
  86.9921,802.609 2352.76,802.609 
  "/>
<polyline clip-path="url(#clip362)" style="stroke:#000000; stroke-linecap:round; stroke-linejoin:round; stroke-width:2; stroke-opacity:0.1; fill:none" points="
  86.9921,447.561 2352.76,447.561 
  "/>
<polyline clip-path="url(#clip362)" style="stroke:#000000; stroke-linecap:round; stroke-linejoin:round; stroke-width:2; stroke-opacity:0.1; fill:none" points="
  86.9921,92.5131 2352.76,92.5131 
  "/>
<polyline clip-path="url(#clip360)" style="stroke:#000000; stroke-linecap:round; stroke-linejoin:round; stroke-width:4; stroke-opacity:1; fill:none" points="
  86.9921,1521.01 86.9921,62.9921 
  "/>
<polyline clip-path="url(#clip360)" style="stroke:#000000; stroke-linecap:round; stroke-linejoin:round; stroke-width:4; stroke-opacity:1; fill:none" points="
  86.9921,1512.7 105.89,1512.7 
  "/>
<polyline clip-path="url(#clip360)" style="stroke:#000000; stroke-linecap:round; stroke-linejoin:round; stroke-width:4; stroke-opacity:1; fill:none" points="
  86.9921,1157.66 105.89,1157.66 
  "/>
<polyline clip-path="url(#clip360)" style="stroke:#000000; stroke-linecap:round; stroke-linejoin:round; stroke-width:4; stroke-opacity:1; fill:none" points="
  86.9921,802.609 105.89,802.609 
  "/>
<polyline clip-path="url(#clip360)" style="stroke:#000000; stroke-linecap:round; stroke-linejoin:round; stroke-width:4; stroke-opacity:1; fill:none" points="
  86.9921,447.561 105.89,447.561 
  "/>
<polyline clip-path="url(#clip360)" style="stroke:#000000; stroke-linecap:round; stroke-linejoin:round; stroke-width:4; stroke-opacity:1; fill:none" points="
  86.9921,92.5131 105.89,92.5131 
  "/>
<path clip-path="url(#clip360)" d="M-36.3454 1498.5 Q-39.9565 1498.5 -41.7852 1502.07 Q-43.5907 1505.61 -43.5907 1512.74 Q-43.5907 1519.85 -41.7852 1523.41 Q-39.9565 1526.95 -36.3454 1526.95 Q-32.7111 1526.95 -30.9056 1523.41 Q-29.0769 1519.85 -29.0769 1512.74 Q-29.0769 1505.61 -30.9056 1502.07 Q-32.7111 1498.5 -36.3454 1498.5 M-36.3454 1494.8 Q-30.5352 1494.8 -27.4797 1499.41 Q-24.401 1503.99 -24.401 1512.74 Q-24.401 1521.47 -27.4797 1526.07 Q-30.5352 1530.66 -36.3454 1530.66 Q-42.1555 1530.66 -45.2342 1526.07 Q-48.2897 1521.47 -48.2897 1512.74 Q-48.2897 1503.99 -45.2342 1499.41 Q-42.1555 1494.8 -36.3454 1494.8 Z" fill="#000000" fill-rule="evenodd" fill-opacity="1" /><path clip-path="url(#clip360)" d="M-16.1834 1524.11 L-11.2992 1524.11 L-11.2992 1529.98 L-16.1834 1529.98 L-16.1834 1524.11 Z" fill="#000000" fill-rule="evenodd" fill-opacity="1" /><path clip-path="url(#clip360)" d="M8.88587 1498.5 Q5.27478 1498.5 3.44608 1502.07 Q1.64054 1505.61 1.64054 1512.74 Q1.64054 1519.85 3.44608 1523.41 Q5.27478 1526.95 8.88587 1526.95 Q12.5201 1526.95 14.3257 1523.41 Q16.1543 1519.85 16.1543 1512.74 Q16.1543 1505.61 14.3257 1502.07 Q12.5201 1498.5 8.88587 1498.5 M8.88587 1494.8 Q14.696 1494.8 17.7516 1499.41 Q20.8303 1503.99 20.8303 1512.74 Q20.8303 1521.47 17.7516 1526.07 Q14.696 1530.66 8.88587 1530.66 Q3.07572 1530.66 -0.00297114 1526.07 Q-3.05851 1521.47 -3.05851 1512.74 Q-3.05851 1503.99 -0.00297114 1499.41 Q3.07572 1494.8 8.88587 1494.8 Z" fill="#000000" fill-rule="evenodd" fill-opacity="1" /><path clip-path="url(#clip360)" d="M39.0477 1498.5 Q35.4367 1498.5 33.608 1502.07 Q31.8024 1505.61 31.8024 1512.74 Q31.8024 1519.85 33.608 1523.41 Q35.4367 1526.95 39.0477 1526.95 Q42.682 1526.95 44.4875 1523.41 Q46.3162 1519.85 46.3162 1512.74 Q46.3162 1505.61 44.4875 1502.07 Q42.682 1498.5 39.0477 1498.5 M39.0477 1494.8 Q44.8579 1494.8 47.9134 1499.41 Q50.9921 1503.99 50.9921 1512.74 Q50.9921 1521.47 47.9134 1526.07 Q44.8579 1530.66 39.0477 1530.66 Q33.2376 1530.66 30.1589 1526.07 Q27.1034 1521.47 27.1034 1512.74 Q27.1034 1503.99 30.1589 1499.41 Q33.2376 1494.8 39.0477 1494.8 Z" fill="#000000" fill-rule="evenodd" fill-opacity="1" /><path clip-path="url(#clip360)" d="M-35.35 1143.46 Q-38.9611 1143.46 -40.7898 1147.02 Q-42.5953 1150.56 -42.5953 1157.69 Q-42.5953 1164.8 -40.7898 1168.36 Q-38.9611 1171.9 -35.35 1171.9 Q-31.7158 1171.9 -29.9102 1168.36 Q-28.0815 1164.8 -28.0815 1157.69 Q-28.0815 1150.56 -29.9102 1147.02 Q-31.7158 1143.46 -35.35 1143.46 M-35.35 1139.75 Q-29.5398 1139.75 -26.4843 1144.36 Q-23.4056 1148.94 -23.4056 1157.69 Q-23.4056 1166.42 -26.4843 1171.02 Q-29.5398 1175.61 -35.35 1175.61 Q-41.1602 1175.61 -44.2388 1171.02 Q-47.2944 1166.42 -47.2944 1157.69 Q-47.2944 1148.94 -44.2388 1144.36 Q-41.1602 1139.75 -35.35 1139.75 Z" fill="#000000" fill-rule="evenodd" fill-opacity="1" /><path clip-path="url(#clip360)" d="M-15.1881 1169.06 L-10.3038 1169.06 L-10.3038 1174.94 L-15.1881 1174.94 L-15.1881 1169.06 Z" fill="#000000" fill-rule="evenodd" fill-opacity="1" /><path clip-path="url(#clip360)" d="M3.90904 1171 L20.2284 1171 L20.2284 1174.94 L-1.71592 1174.94 L-1.71592 1171 Q0.946098 1168.25 5.52941 1163.62 Q10.1359 1158.96 11.3164 1157.62 Q13.5618 1155.1 14.4414 1153.36 Q15.3442 1151.6 15.3442 1149.91 Q15.3442 1147.16 13.3997 1145.42 Q11.4784 1143.69 8.37661 1143.69 Q6.17755 1143.69 3.72386 1144.45 Q1.29332 1145.21 -1.48444 1146.77 L-1.48444 1142.04 Q1.33961 1140.91 3.7933 1140.33 Q6.247 1139.75 8.28402 1139.75 Q13.6544 1139.75 16.8488 1142.44 Q20.0432 1145.12 20.0432 1149.61 Q20.0432 1151.74 19.233 1153.66 Q18.446 1155.56 16.3395 1158.15 Q15.7608 1158.83 12.659 1162.04 Q9.55716 1165.24 3.90904 1171 Z" fill="#000000" fill-rule="evenodd" fill-opacity="1" /><path clip-path="url(#clip360)" d="M30.0895 1140.38 L48.4458 1140.38 L48.4458 1144.31 L34.3718 1144.31 L34.3718 1152.78 Q35.3904 1152.44 36.4089 1152.27 Q37.4274 1152.09 38.4459 1152.09 Q44.2329 1152.09 47.6125 1155.26 Q50.9921 1158.43 50.9921 1163.85 Q50.9921 1169.43 47.5199 1172.53 Q44.0477 1175.61 37.7283 1175.61 Q35.5524 1175.61 33.2839 1175.24 Q31.0385 1174.87 28.6311 1174.13 L28.6311 1169.43 Q30.7145 1170.56 32.9367 1171.12 Q35.1589 1171.67 37.6357 1171.67 Q41.6403 1171.67 43.9783 1169.57 Q46.3162 1167.46 46.3162 1163.85 Q46.3162 1160.24 43.9783 1158.13 Q41.6403 1156.02 37.6357 1156.02 Q35.7607 1156.02 33.8857 1156.44 Q32.0339 1156.86 30.0895 1157.74 L30.0895 1140.38 Z" fill="#000000" fill-rule="evenodd" fill-opacity="1" /><path clip-path="url(#clip360)" d="M-36.3454 788.408 Q-39.9565 788.408 -41.7852 791.972 Q-43.5907 795.514 -43.5907 802.644 Q-43.5907 809.75 -41.7852 813.315 Q-39.9565 816.856 -36.3454 816.856 Q-32.7111 816.856 -30.9056 813.315 Q-29.0769 809.75 -29.0769 802.644 Q-29.0769 795.514 -30.9056 791.972 Q-32.7111 788.408 -36.3454 788.408 M-36.3454 784.704 Q-30.5352 784.704 -27.4797 789.31 Q-24.401 793.894 -24.401 802.644 Q-24.401 811.37 -27.4797 815.977 Q-30.5352 820.56 -36.3454 820.56 Q-42.1555 820.56 -45.2342 815.977 Q-48.2897 811.37 -48.2897 802.644 Q-48.2897 793.894 -45.2342 789.31 Q-42.1555 784.704 -36.3454 784.704 Z" fill="#000000" fill-rule="evenodd" fill-opacity="1" /><path clip-path="url(#clip360)" d="M-16.1834 814.009 L-11.2992 814.009 L-11.2992 819.889 L-16.1834 819.889 L-16.1834 814.009 Z" fill="#000000" fill-rule="evenodd" fill-opacity="1" /><path clip-path="url(#clip360)" d="M-1.06778 785.329 L17.2886 785.329 L17.2886 789.264 L3.2146 789.264 L3.2146 797.736 Q4.23312 797.389 5.25163 797.227 Q6.27014 797.042 7.28866 797.042 Q13.0757 797.042 16.4553 800.213 Q19.8349 803.384 19.8349 808.801 Q19.8349 814.38 16.3627 817.481 Q12.8905 820.56 6.57107 820.56 Q4.39515 820.56 2.12665 820.19 Q-0.118711 819.819 -2.52611 819.079 L-2.52611 814.38 Q-0.442784 815.514 1.77943 816.069 Q4.00164 816.625 6.47848 816.625 Q10.4831 816.625 12.821 814.519 Q15.159 812.412 15.159 808.801 Q15.159 805.19 12.821 803.083 Q10.4831 800.977 6.47848 800.977 Q4.60349 800.977 2.7285 801.394 Q0.876654 801.81 -1.06778 802.69 L-1.06778 785.329 Z" fill="#000000" fill-rule="evenodd" fill-opacity="1" /><path clip-path="url(#clip360)" d="M39.0477 788.408 Q35.4367 788.408 33.608 791.972 Q31.8024 795.514 31.8024 802.644 Q31.8024 809.75 33.608 813.315 Q35.4367 816.856 39.0477 816.856 Q42.682 816.856 44.4875 813.315 Q46.3162 809.75 46.3162 802.644 Q46.3162 795.514 44.4875 791.972 Q42.682 788.408 39.0477 788.408 M39.0477 784.704 Q44.8579 784.704 47.9134 789.31 Q50.9921 793.894 50.9921 802.644 Q50.9921 811.37 47.9134 815.977 Q44.8579 820.56 39.0477 820.56 Q33.2376 820.56 30.1589 815.977 Q27.1034 811.37 27.1034 802.644 Q27.1034 793.894 30.1589 789.31 Q33.2376 784.704 39.0477 784.704 Z" fill="#000000" fill-rule="evenodd" fill-opacity="1" /><path clip-path="url(#clip360)" d="M-35.35 433.36 Q-38.9611 433.36 -40.7898 436.924 Q-42.5953 440.466 -42.5953 447.596 Q-42.5953 454.702 -40.7898 458.267 Q-38.9611 461.809 -35.35 461.809 Q-31.7158 461.809 -29.9102 458.267 Q-28.0815 454.702 -28.0815 447.596 Q-28.0815 440.466 -29.9102 436.924 Q-31.7158 433.36 -35.35 433.36 M-35.35 429.656 Q-29.5398 429.656 -26.4843 434.262 Q-23.4056 438.846 -23.4056 447.596 Q-23.4056 456.322 -26.4843 460.929 Q-29.5398 465.512 -35.35 465.512 Q-41.1602 465.512 -44.2388 460.929 Q-47.2944 456.322 -47.2944 447.596 Q-47.2944 438.846 -44.2388 434.262 Q-41.1602 429.656 -35.35 429.656 Z" fill="#000000" fill-rule="evenodd" fill-opacity="1" /><path clip-path="url(#clip360)" d="M-15.1881 458.961 L-10.3038 458.961 L-10.3038 464.841 L-15.1881 464.841 L-15.1881 458.961 Z" fill="#000000" fill-rule="evenodd" fill-opacity="1" /><path clip-path="url(#clip360)" d="M-1.29926 430.281 L20.9228 430.281 L20.9228 432.272 L8.37661 464.841 L3.49238 464.841 L15.2979 434.216 L-1.29926 434.216 L-1.29926 430.281 Z" fill="#000000" fill-rule="evenodd" fill-opacity="1" /><path clip-path="url(#clip360)" d="M30.0895 430.281 L48.4458 430.281 L48.4458 434.216 L34.3718 434.216 L34.3718 442.688 Q35.3904 442.341 36.4089 442.179 Q37.4274 441.994 38.4459 441.994 Q44.2329 441.994 47.6125 445.165 Q50.9921 448.336 50.9921 453.753 Q50.9921 459.332 47.5199 462.434 Q44.0477 465.512 37.7283 465.512 Q35.5524 465.512 33.2839 465.142 Q31.0385 464.772 28.6311 464.031 L28.6311 459.332 Q30.7145 460.466 32.9367 461.022 Q35.1589 461.577 37.6357 461.577 Q41.6403 461.577 43.9783 459.471 Q46.3162 457.364 46.3162 453.753 Q46.3162 450.142 43.9783 448.036 Q41.6403 445.929 37.6357 445.929 Q35.7607 445.929 33.8857 446.346 Q32.0339 446.762 30.0895 447.642 L30.0895 430.281 Z" fill="#000000" fill-rule="evenodd" fill-opacity="1" /><path clip-path="url(#clip360)" d="M-45.5351 105.858 L-37.8963 105.858 L-37.8963 79.4923 L-46.2064 81.1589 L-46.2064 76.8997 L-37.9426 75.2331 L-33.2667 75.2331 L-33.2667 105.858 L-25.6278 105.858 L-25.6278 109.793 L-45.5351 109.793 L-45.5351 105.858 Z" fill="#000000" fill-rule="evenodd" fill-opacity="1" /><path clip-path="url(#clip360)" d="M-16.1834 103.913 L-11.2992 103.913 L-11.2992 109.793 L-16.1834 109.793 L-16.1834 103.913 Z" fill="#000000" fill-rule="evenodd" fill-opacity="1" /><path clip-path="url(#clip360)" d="M8.88587 78.3117 Q5.27478 78.3117 3.44608 81.8765 Q1.64054 85.4182 1.64054 92.5478 Q1.64054 99.6542 3.44608 103.219 Q5.27478 106.761 8.88587 106.761 Q12.5201 106.761 14.3257 103.219 Q16.1543 99.6542 16.1543 92.5478 Q16.1543 85.4182 14.3257 81.8765 Q12.5201 78.3117 8.88587 78.3117 M8.88587 74.6081 Q14.696 74.6081 17.7516 79.2145 Q20.8303 83.7978 20.8303 92.5478 Q20.8303 101.275 17.7516 105.881 Q14.696 110.464 8.88587 110.464 Q3.07572 110.464 -0.00297114 105.881 Q-3.05851 101.275 -3.05851 92.5478 Q-3.05851 83.7978 -0.00297114 79.2145 Q3.07572 74.6081 8.88587 74.6081 Z" fill="#000000" fill-rule="evenodd" fill-opacity="1" /><path clip-path="url(#clip360)" d="M39.0477 78.3117 Q35.4367 78.3117 33.608 81.8765 Q31.8024 85.4182 31.8024 92.5478 Q31.8024 99.6542 33.608 103.219 Q35.4367 106.761 39.0477 106.761 Q42.682 106.761 44.4875 103.219 Q46.3162 99.6542 46.3162 92.5478 Q46.3162 85.4182 44.4875 81.8765 Q42.682 78.3117 39.0477 78.3117 M39.0477 74.6081 Q44.8579 74.6081 47.9134 79.2145 Q50.9921 83.7978 50.9921 92.5478 Q50.9921 101.275 47.9134 105.881 Q44.8579 110.464 39.0477 110.464 Q33.2376 110.464 30.1589 105.881 Q27.1034 101.275 27.1034 92.5478 Q27.1034 83.7978 30.1589 79.2145 Q33.2376 74.6081 39.0477 74.6081 Z" fill="#000000" fill-rule="evenodd" fill-opacity="1" /><path clip-path="url(#clip360)" d="M1022.76 12.096 L1073.92 12.096 L1073.92 18.9825 L1052.45 18.9825 L1052.45 72.576 L1044.23 72.576 L1044.23 18.9825 L1022.76 18.9825 L1022.76 12.096 Z" fill="#000000" fill-rule="evenodd" fill-opacity="1" /><path clip-path="url(#clip360)" d="M1063.43 27.2059 L1070.88 27.2059 L1080.2 62.6108 L1089.48 27.2059 L1098.27 27.2059 L1107.58 62.6108 L1116.86 27.2059 L1124.31 27.2059 L1112.44 72.576 L1103.65 72.576 L1093.89 35.3887 L1084.09 72.576 L1075.3 72.576 L1063.43 27.2059 Z" fill="#000000" fill-rule="evenodd" fill-opacity="1" /><path clip-path="url(#clip360)" d="M1153.2 32.4315 Q1147.2 32.4315 1143.72 37.1306 Q1140.23 41.7891 1140.23 49.9314 Q1140.23 58.0738 1143.68 62.7728 Q1147.16 67.4314 1153.2 67.4314 Q1159.15 67.4314 1162.63 62.7323 Q1166.12 58.0333 1166.12 49.9314 Q1166.12 41.8701 1162.63 37.1711 Q1159.15 32.4315 1153.2 32.4315 M1153.2 26.1121 Q1162.92 26.1121 1168.47 32.4315 Q1174.02 38.7509 1174.02 49.9314 Q1174.02 61.0714 1168.47 67.4314 Q1162.92 73.7508 1153.2 73.7508 Q1143.43 73.7508 1137.88 67.4314 Q1132.37 61.0714 1132.37 49.9314 Q1132.37 38.7509 1137.88 32.4315 Q1143.43 26.1121 1153.2 26.1121 Z" fill="#000000" fill-rule="evenodd" fill-opacity="1" /><path clip-path="url(#clip360)" d="M1213.07 12.096 L1221.25 12.096 L1221.25 65.6895 L1250.7 65.6895 L1250.7 72.576 L1213.07 72.576 L1213.07 12.096 Z" fill="#000000" fill-rule="evenodd" fill-opacity="1" /><path clip-path="url(#clip360)" d="M1258.97 27.2059 L1266.42 27.2059 L1266.42 72.576 L1258.97 72.576 L1258.97 27.2059 M1258.97 9.54393 L1266.42 9.54393 L1266.42 18.9825 L1258.97 18.9825 L1258.97 9.54393 Z" fill="#000000" fill-rule="evenodd" fill-opacity="1" /><path clip-path="url(#clip360)" d="M1319.73 45.1919 L1319.73 72.576 L1312.28 72.576 L1312.28 45.4349 Q1312.28 38.994 1309.76 35.7938 Q1307.25 32.5936 1302.23 32.5936 Q1296.19 32.5936 1292.71 36.4419 Q1289.23 40.2903 1289.23 46.9338 L1289.23 72.576 L1281.73 72.576 L1281.73 27.2059 L1289.23 27.2059 L1289.23 34.2544 Q1291.9 30.163 1295.5 28.1376 Q1299.15 26.1121 1303.89 26.1121 Q1311.71 26.1121 1315.72 30.9732 Q1319.73 35.7938 1319.73 45.1919 Z" fill="#000000" fill-rule="evenodd" fill-opacity="1" /><path clip-path="url(#clip360)" d="M1373.4 48.0275 L1373.4 51.6733 L1339.13 51.6733 Q1339.62 59.3701 1343.75 63.421 Q1347.92 67.4314 1355.34 67.4314 Q1359.63 67.4314 1363.64 66.3781 Q1367.69 65.3249 1371.66 63.2184 L1371.66 70.267 Q1367.65 71.9684 1363.44 72.8596 Q1359.23 73.7508 1354.89 73.7508 Q1344.03 73.7508 1337.67 67.4314 Q1331.35 61.1119 1331.35 50.3365 Q1331.35 39.1965 1337.35 32.6746 Q1343.39 26.1121 1353.59 26.1121 Q1362.75 26.1121 1368.06 32.0264 Q1373.4 37.9003 1373.4 48.0275 M1365.95 45.84 Q1365.87 39.7232 1362.51 36.0774 Q1359.18 32.4315 1353.68 32.4315 Q1347.44 32.4315 1343.67 35.9558 Q1339.94 39.4801 1339.38 45.8805 L1365.95 45.84 Z" fill="#000000" fill-rule="evenodd" fill-opacity="1" /><path clip-path="url(#clip360)" d="M1414.56 28.5427 L1414.56 35.5912 Q1411.4 33.9709 1408 33.1607 Q1404.6 32.3505 1400.95 32.3505 Q1395.4 32.3505 1392.6 34.0519 Q1389.85 35.7533 1389.85 39.156 Q1389.85 41.7486 1391.83 43.2475 Q1393.82 44.7058 1399.82 46.0426 L1402.37 46.6097 Q1410.31 48.3111 1413.63 51.4303 Q1416.99 54.509 1416.99 60.0587 Q1416.99 66.3781 1411.97 70.0644 Q1406.99 73.7508 1398.24 73.7508 Q1394.59 73.7508 1390.62 73.0216 Q1386.69 72.3329 1382.32 70.9151 L1382.32 63.2184 Q1386.45 65.3654 1390.46 66.4591 Q1394.47 67.5124 1398.4 67.5124 Q1403.66 67.5124 1406.5 65.73 Q1409.33 63.9071 1409.33 60.6258 Q1409.33 57.5877 1407.27 55.9673 Q1405.24 54.3469 1398.32 52.8481 L1395.72 52.2405 Q1388.8 50.7821 1385.72 47.7845 Q1382.64 44.7463 1382.64 39.4801 Q1382.64 33.0797 1387.18 29.5959 Q1391.71 26.1121 1400.06 26.1121 Q1404.19 26.1121 1407.84 26.7198 Q1411.48 27.3274 1414.56 28.5427 Z" fill="#000000" fill-rule="evenodd" fill-opacity="1" /><polyline clip-path="url(#clip362)" style="stroke:#009af9; stroke-linecap:round; stroke-linejoin:round; stroke-width:12; stroke-opacity:1; fill:none" points="
  151.118,1434.93 388.619,854.554 626.12,278.977 863.622,191.732 1101.12,1479.74 1338.62,681.488 1576.13,247.704 1813.63,333.315 2051.13,393.793 2288.63,383.208 
  
  "/>
<polyline clip-path="url(#clip362)" style="stroke:#e26f46; stroke-linecap:round; stroke-linejoin:round; stroke-width:12; stroke-opacity:1; fill:none" points="
  151.118,727.156 388.619,1231.35 626.12,1149.95 863.622,166.776 1101.12,1424.18 1338.62,1196.96 1576.13,104.257 1813.63,1015.72 2051.13,1426.15 2288.63,1034.31 
  
  "/>
<path clip-path="url(#clip360)" d="
M1890.48 267.113 L2277.23 267.113 L2277.23 111.593 L1890.48 111.593  Z
  " fill="#ffffff" fill-rule="evenodd" fill-opacity="1"/>
<polyline clip-path="url(#clip360)" style="stroke:#000000; stroke-linecap:round; stroke-linejoin:round; stroke-width:4; stroke-opacity:1; fill:none" points="
  1890.48,267.113 2277.23,267.113 2277.23,111.593 1890.48,111.593 1890.48,267.113 
  "/>
<polyline clip-path="url(#clip360)" style="stroke:#009af9; stroke-linecap:round; stroke-linejoin:round; stroke-width:4; stroke-opacity:1; fill:none" points="
  1915.65,163.433 2066.71,163.433 
  "/>
<path clip-path="url(#clip360)" d="M2091.88 146.153 L2096.56 146.153 L2096.56 176.777 L2113.39 176.777 L2113.39 180.713 L2091.88 180.713 L2091.88 146.153 Z" fill="#000000" fill-rule="evenodd" fill-opacity="1" /><path clip-path="url(#clip360)" d="M2118.11 154.787 L2122.37 154.787 L2122.37 180.713 L2118.11 180.713 L2118.11 154.787 M2118.11 144.694 L2122.37 144.694 L2122.37 150.088 L2118.11 150.088 L2118.11 144.694 Z" fill="#000000" fill-rule="evenodd" fill-opacity="1" /><path clip-path="url(#clip360)" d="M2152.83 165.065 L2152.83 180.713 L2148.57 180.713 L2148.57 165.203 Q2148.57 161.523 2147.14 159.694 Q2145.7 157.866 2142.83 157.866 Q2139.38 157.866 2137.39 160.065 Q2135.4 162.264 2135.4 166.06 L2135.4 180.713 L2131.12 180.713 L2131.12 154.787 L2135.4 154.787 L2135.4 158.815 Q2136.93 156.477 2138.99 155.319 Q2141.07 154.162 2143.78 154.162 Q2148.25 154.162 2150.54 156.94 Q2152.83 159.694 2152.83 165.065 Z" fill="#000000" fill-rule="evenodd" fill-opacity="1" /><path clip-path="url(#clip360)" d="M2183.5 166.685 L2183.5 168.768 L2163.92 168.768 Q2164.2 173.166 2166.56 175.481 Q2168.94 177.773 2173.18 177.773 Q2175.63 177.773 2177.92 177.171 Q2180.24 176.569 2182.51 175.365 L2182.51 179.393 Q2180.21 180.365 2177.81 180.875 Q2175.4 181.384 2172.92 181.384 Q2166.72 181.384 2163.08 177.773 Q2159.47 174.162 2159.47 168.004 Q2159.47 161.639 2162.9 157.912 Q2166.35 154.162 2172.18 154.162 Q2177.41 154.162 2180.45 157.541 Q2183.5 160.898 2183.5 166.685 M2179.24 165.435 Q2179.2 161.94 2177.27 159.856 Q2175.38 157.773 2172.23 157.773 Q2168.66 157.773 2166.51 159.787 Q2164.38 161.801 2164.06 165.458 L2179.24 165.435 Z" fill="#000000" fill-rule="evenodd" fill-opacity="1" /><path clip-path="url(#clip360)" d="M2206.97 176.777 L2214.61 176.777 L2214.61 150.412 L2206.3 152.079 L2206.3 147.819 L2214.57 146.153 L2219.24 146.153 L2219.24 176.777 L2226.88 176.777 L2226.88 180.713 L2206.97 180.713 L2206.97 176.777 Z" fill="#000000" fill-rule="evenodd" fill-opacity="1" /><polyline clip-path="url(#clip360)" style="stroke:#e26f46; stroke-linecap:round; stroke-linejoin:round; stroke-width:4; stroke-opacity:1; fill:none" points="
  1915.65,215.273 2066.71,215.273 
  "/>
<path clip-path="url(#clip360)" d="M2091.88 197.993 L2096.56 197.993 L2096.56 228.617 L2113.39 228.617 L2113.39 232.553 L2091.88 232.553 L2091.88 197.993 Z" fill="#000000" fill-rule="evenodd" fill-opacity="1" /><path clip-path="url(#clip360)" d="M2118.11 206.627 L2122.37 206.627 L2122.37 232.553 L2118.11 232.553 L2118.11 206.627 M2118.11 196.534 L2122.37 196.534 L2122.37 201.928 L2118.11 201.928 L2118.11 196.534 Z" fill="#000000" fill-rule="evenodd" fill-opacity="1" /><path clip-path="url(#clip360)" d="M2152.83 216.905 L2152.83 232.553 L2148.57 232.553 L2148.57 217.043 Q2148.57 213.363 2147.14 211.534 Q2145.7 209.706 2142.83 209.706 Q2139.38 209.706 2137.39 211.905 Q2135.4 214.104 2135.4 217.9 L2135.4 232.553 L2131.12 232.553 L2131.12 206.627 L2135.4 206.627 L2135.4 210.655 Q2136.93 208.317 2138.99 207.159 Q2141.07 206.002 2143.78 206.002 Q2148.25 206.002 2150.54 208.78 Q2152.83 211.534 2152.83 216.905 Z" fill="#000000" fill-rule="evenodd" fill-opacity="1" /><path clip-path="url(#clip360)" d="M2183.5 218.525 L2183.5 220.608 L2163.92 220.608 Q2164.2 225.006 2166.56 227.321 Q2168.94 229.613 2173.18 229.613 Q2175.63 229.613 2177.92 229.011 Q2180.24 228.409 2182.51 227.205 L2182.51 231.233 Q2180.21 232.205 2177.81 232.715 Q2175.4 233.224 2172.92 233.224 Q2166.72 233.224 2163.08 229.613 Q2159.47 226.002 2159.47 219.844 Q2159.47 213.479 2162.9 209.752 Q2166.35 206.002 2172.18 206.002 Q2177.41 206.002 2180.45 209.381 Q2183.5 212.738 2183.5 218.525 M2179.24 217.275 Q2179.2 213.78 2177.27 211.696 Q2175.38 209.613 2172.23 209.613 Q2168.66 209.613 2166.51 211.627 Q2164.38 213.641 2164.06 217.298 L2179.24 217.275 Z" fill="#000000" fill-rule="evenodd" fill-opacity="1" /><path clip-path="url(#clip360)" d="M2210.19 228.617 L2226.51 228.617 L2226.51 232.553 L2204.57 232.553 L2204.57 228.617 Q2207.23 225.863 2211.81 221.233 Q2216.42 216.581 2217.6 215.238 Q2219.84 212.715 2220.72 210.979 Q2221.63 209.219 2221.63 207.53 Q2221.63 204.775 2219.68 203.039 Q2217.76 201.303 2214.66 201.303 Q2212.46 201.303 2210.01 202.067 Q2207.57 202.831 2204.8 204.382 L2204.8 199.659 Q2207.62 198.525 2210.07 197.946 Q2212.53 197.368 2214.57 197.368 Q2219.94 197.368 2223.13 200.053 Q2226.32 202.738 2226.32 207.229 Q2226.32 209.358 2225.51 211.28 Q2224.73 213.178 2222.62 215.77 Q2222.04 216.442 2218.94 219.659 Q2215.84 222.854 2210.19 228.617 Z" fill="#000000" fill-rule="evenodd" fill-opacity="1" /></svg>
